<svg xmlns="http://www.w3.org/2000/svg" width="613" height="573" viewBox="0 0 613 573">
  <g fill="#F8F2EB" transform="translate(0 21)">
    <path d="M321.453291,531.489117 C321.300239,531.233675 321.402274,530.058644 321.708378,528.883613 C322.014483,527.708582 322.524658,525.511785 322.779745,524.030225 C323.034833,522.497575 323.442973,520.045337 323.69806,518.614864 C324.004165,517.133304 324.565357,513.710387 324.973497,511.053795 C325.432654,508.397204 325.993846,505.178641 326.248934,503.901433 C326.504021,502.624225 326.963178,500.223075 327.269283,498.537161 C327.575388,496.851247 328.95286,489.749973 330.330332,482.699787 C331.707804,475.700689 333.085275,468.343973 333.39138,466.35153 C333.697485,464.410174 334.309695,460.476375 334.768852,457.666518 C335.891236,450.718509 336.299376,427.268977 335.483097,418.635054 C334.513765,408.161952 333.59545,404.739035 328.595738,392.018048 C327.014196,387.930983 325.075532,382.873241 324.259252,380.778621 C323.442973,378.684 322.218553,375.465437 321.555326,373.626258 C320.841081,371.787079 319.973784,368.823958 319.667679,366.984779 C319.310557,365.1456 318.953435,363.357509 318.8514,362.999891 C318.64733,362.335743 311.147761,365.963013 304.464472,369.9479 C302.984965,370.86749 301.607493,371.582726 301.403423,371.582726 C301.199354,371.582726 299.311707,372.655581 297.219991,373.8817 C288.700072,379.041618 278.394542,383.639566 269.415467,386.296158 C265.283051,387.471189 263.956597,387.624454 256.661098,387.675542 C249.569669,387.675542 248.039145,387.522277 245.029114,386.551599 C236.968353,383.895007 233.142042,380.063385 232.223727,373.57517 L231.866605,371.225108 L229.723871,371.633814 C228.550469,371.838168 225.846543,372.502316 223.754827,373.115375 C221.66311,373.677347 217.173572,374.699113 213.806419,375.414349 C210.439266,376.129585 206.766007,376.946998 205.643623,377.20244 C204.521239,377.457881 199.878648,378.479647 195.287076,379.501413 C190.74652,380.472091 186.052913,381.647122 184.828493,382.055828 C183.655091,382.464535 182.175585,382.822153 181.563375,382.822153 C180.951165,382.822153 180.338955,383.026506 180.134886,383.281948 C179.165554,384.916773 188.705821,403.410739 193.552481,409.132629 C194.011639,409.694601 195.338093,411.329426 196.460478,412.708811 C197.531845,414.139283 200.643911,417.868729 203.347837,421.087292 C209.214846,428.08639 211.000458,430.283187 214.316594,434.523516 C215.694066,436.311607 216.969502,437.844256 217.122555,437.997521 C217.326625,438.150786 218.959184,440.44976 220.846831,443.106351 C222.734477,445.762943 224.826194,448.726065 225.540438,449.696743 C227.12198,451.842451 227.172997,452.710953 225.693491,453.272924 C223.754827,453.98816 216.20424,454.856661 211.816738,454.856661 C207.12313,454.856661 199.827631,455.622986 195.695215,456.491487 C192.277045,457.206723 188.858874,458.586107 177.788082,463.746026 C173.145492,465.891735 168.094762,467.935267 166.564237,468.343973 C162.074699,469.519004 155.901585,470.591859 151.973239,470.949477 L148.248964,471.256007 L148.248964,467.271119 C148.248964,465.074322 148.095911,462.41773 147.942859,461.395964 L147.636754,459.505697 L145.238933,460.680728 C141.769744,462.41773 136.20884,464.359086 129.474533,466.147176 C122.740226,467.884179 111.414347,469.05921 108.455333,468.292885 L106.669722,467.83309 L106.516669,463.388408 L106.363617,458.943726 L104.424953,458.943726 C101.823062,458.943726 93.7112831,460.578551 87.0279939,462.468819 C72.4880135,466.555883 69.1208602,467.220031 62.9477457,467.322207 C59.5295749,467.322207 56.7746313,467.168943 56.4685264,466.862413 C56.1624216,466.555883 56.1624216,465.380852 56.4175089,463.797114 C57.5909109,456.798017 57.9990507,454.192513 57.7949808,454.039248 C57.6929458,453.937072 56.7236138,454.192513 55.6012293,454.652308 C51.5708488,456.38931 48.4587828,456.900193 42.132616,456.900193 C38.6124102,456.900193 33.9188025,456.542575 31.6740336,456.133869 C14.634197,452.966394 9.27736212,452.608776 4.430702,454.192513 C1.98186321,454.958838 1.72677583,454.958838 0.961513708,454.192513 C0.196251585,453.477277 0.196251585,452.915306 0.808461284,448.87933 C2.23695058,438.968199 6.72648837,417.715464 8.97125727,410.154395 C9.22634464,409.336983 9.63448444,407.702157 9.94058929,406.578214 C10.6038165,403.768358 16.2667562,384.201537 18.1544028,378.224206 C19.786962,372.859934 23.8173425,359.015003 25.3478667,353.446378 C25.9090589,351.505023 26.5212686,349.410402 26.776356,348.848431 C27.0314434,348.28646 28.0007754,344.608102 29.0211249,340.674302 C29.9904569,336.740503 31.1638589,332.244732 31.5719987,330.712083 C32.2862433,328.10658 34.0208374,320.187893 35.7044141,311.553969 C37.1329034,304.503783 37.6940956,300.876514 39.1736024,289.84144 C39.5817422,286.878318 39.8368296,279.163985 39.7858121,269.917002 C39.7858121,251.933919 39.6327597,250.503446 34.7350821,227.513709 C33.96982,224.039705 31.7760686,215.354693 29.888422,208.355596 C29.2762123,206.10771 28.3578977,202.327176 27.847723,199.926025 C27.3375482,197.524875 26.5212686,194.306312 26.1131288,192.773663 C25.1948143,189.657276 22.1337658,174.432962 21.1134163,167.995836 C20.0930668,161.711974 20.2971367,137.547206 21.3685037,129.01546 C22.8990279,117.367327 24.9907444,107.660549 26.878391,103.522396 C27.3885657,102.347365 27.847723,101.121246 27.847723,100.814716 C27.847723,100.508186 28.5109502,98.9244488 29.3782472,97.2896231 L30.857754,94.2754132 L28.9701074,94.7352079 C16.572861,97.5961529 10.9609388,98.7711839 9.83855434,98.7711839 C8.1039602,98.7711839 6.8795408,96.9830933 6.52241847,93.9177951 C6.21631362,90.9546734 6.77750585,90.3416138 10.3997466,89.6774659 C11.9812883,89.370936 18.2564377,88.1448167 24.2764997,87.0208741 C30.2965618,85.8458431 36.877816,84.5686355 38.8164801,84.159929 C42.7448257,83.2914279 55.0400371,80.8391893 61.0090817,79.7152466 C68.7637379,78.2336858 99.1701529,72.1030894 103.863761,71.1324116 C106.516669,70.5704402 111.108242,69.6508508 114.067256,69.0888794 C117.026269,68.5779964 122.281069,67.5562303 125.801275,66.8409941 C129.321481,66.0746695 134.933403,64.9507268 138.300556,64.2354906 C141.66771,63.5713426 146.157247,62.6517532 148.248964,62.294135 C150.34068,61.8854286 158.962634,60.1995146 167.380517,58.5136005 C175.7984,56.8276865 186.154948,54.8352427 190.338381,54.0689181 C194.572831,53.3536819 198.807281,52.536269 199.776613,52.2808275 C201.66426,51.7699444 209.418916,50.4927369 214.061506,49.9818538 C215.592031,49.7775006 218.704097,49.3177059 220.948866,48.9089994 C223.193634,48.500293 232.37678,46.9165556 241.355855,45.3839065 C250.334931,43.8512574 260.079269,42.1653433 263.038282,41.603372 C272.068375,39.917458 289.618387,36.4434533 293.39368,35.6260405 C295.383361,35.217334 300.281039,34.1955679 304.362437,33.3781551 C317.83105,30.670475 319.871749,30.2617686 324.51434,29.2400025 C327.065213,28.6780311 334.258677,27.1964703 340.584844,25.9192627 C346.911011,24.6931434 355.277877,22.9561411 359.206223,22.1387283 C363.134568,21.2702271 370.277015,19.7886663 375.02164,18.8179885 C379.817282,17.898399 387.010746,16.3657499 391.092144,15.4972488 C395.173542,14.6287476 399.765115,13.7091581 401.295639,13.5048049 C402.826164,13.2493634 405.836195,12.6363038 407.927911,12.176509 C411.193029,11.4612728 422.518909,9.2133874 442.874881,5.2284997 C445.680842,4.71761667 449.150031,4.00238041 450.527503,3.69585059 C456.853669,2.36755469 473.434349,-0.237948801 474.097576,0.0174927177 C475.21996,0.477287452 475.934205,4.87088158 475.168943,6.91441373 C474.811821,7.78291489 474.403681,7.8850915 463.485941,9.92862365 L457.516897,11.001478 L460.935067,13.9645997 C476.750485,27.80953 487.004997,45.7926129 493.688286,71.6943829 C495.83102,79.9195998 499.606313,96.3189453 501.442943,104.90178 C503.330589,113.995498 509.248616,133.562319 511.238298,137.44503 C511.646438,138.211354 512.00356,139.028767 512.00356,139.233121 C512.00356,139.692915 515.013591,145.823512 516.44208,148.377927 C519.452111,153.588934 522.71723,158.748853 525.982348,163.295712 C527.97203,166.05448 529.961711,168.864337 530.369851,169.477396 C535.216511,176.629759 557.613182,205.137032 564.806646,213.260073 C565.929031,214.53728 568.326852,217.296049 570.163481,219.339581 C580.928168,231.651862 589.856227,241.154287 601.131089,252.291537 C609.242867,260.3124 612.048828,263.428787 612.303916,264.55273 C612.559003,266.034291 612.303916,266.391909 606.334871,271.194209 C602.9167,274.004066 599.141407,277.120452 598.019023,278.09113 C595.366114,280.390104 592.509135,282.535813 589.346052,284.681521 L586.897213,286.367435 L590.621489,290.14797 L594.345764,293.877416 L592.100995,295.972037 C590.876576,297.147068 588.682825,298.832982 587.254335,299.803659 C583.785147,302.102633 571.745023,308.079965 564.041384,311.349616 C559.092689,313.444236 550.776841,317.940007 547.817827,320.085716 C544.399656,322.589043 539.706049,327.340255 539.297909,328.719639 C539.093839,329.332699 539.706049,330.609906 541.134538,332.60235 C543.787447,336.22962 548.838177,342.155863 551.082946,344.35266 C552.052278,345.221161 552.81754,346.191839 552.81754,346.549457 C552.81754,348.388636 545.317971,353.037672 539.195874,355.030116 C537.818402,355.438822 536.287878,356.000793 535.726686,356.256235 C535.165493,356.511677 533.226829,357.226913 531.3902,357.839972 C525.523191,359.73024 520.115338,362.74445 515.82987,366.473896 C507.309952,373.8817 502.004135,377.611146 495.83102,380.472091 C492.055727,382.209093 483.076652,384.814597 480.780865,384.865685 C479.607463,384.865685 479.607463,384.610244 481.137988,391.251723 C485.32142,409.183718 494.657618,439.734523 498.432912,447.95974 C498.841051,448.828241 499.657331,450.97395 500.269541,452.813129 C500.88175,454.652308 501.9021,457.3089 502.565327,458.688284 C503.177537,460.118757 504.350939,462.877525 505.116201,464.818881 C506.901812,469.314651 514.350364,486.173792 515.574783,488.574942 C516.135975,489.54562 518.278709,493.939214 520.472461,498.28172 C524.349789,506.200407 526.74761,510.696177 529.451536,515.294125 C530.216798,516.622421 530.880026,517.899628 530.880026,518.103981 C530.880026,518.308335 531.696305,519.738807 532.665637,521.220368 C534.502266,523.979136 534.655319,525.562874 533.124794,525.256344 C531.18613,524.898726 513.432049,490.669562 506.646725,474.270217 C505.93248,472.431038 504.299921,468.650503 503.075502,465.840647 C501.9021,463.03079 499.708348,457.61543 498.228842,453.834895 C496.800352,450.054361 495.167793,445.916208 494.708636,444.639001 C492.769972,439.734523 483.382756,409.950042 482.413424,405.81189 C481.801215,403.206386 480.729848,398.710615 479.607463,394.572463 C475.781153,379.91012 471.18958,350.789786 470.322283,335.92309 C469.914143,329.230522 470.16923,327.697873 471.495685,328.566374 C471.80179,328.770728 472.311964,332.500174 472.669087,336.84268 C473.485366,347.213605 474.964873,359.321533 476.597432,368.517428 C477.311677,372.604492 478.127957,377.406793 478.434061,379.143795 C478.740166,380.982974 479.301358,382.515623 479.709498,382.668888 C480.831883,383.128683 489.555871,380.778621 494.198461,378.735089 C499.147156,376.640468 505.320271,372.502316 510.728123,367.751103 C514.707486,364.277099 519.605164,360.547653 521.951967,359.219357 C523.941649,358.146502 531.645288,355.183381 536.23686,353.70182 C542.10387,351.862641 549.756491,347.877753 549.756491,346.651634 C549.756491,346.447281 548.379019,344.812455 546.644425,342.973276 C539.910119,335.769825 533.02276,325.245635 530.267816,317.991095 C526.54354,308.335406 526.237435,306.70058 528.023047,306.70058 C528.533222,306.70058 529.298484,308.386494 530.369851,311.707234 C531.79834,316.151917 535.777703,324.78584 537.155175,326.522842 C537.563315,327.033725 537.818402,326.88046 538.430612,326.011959 C540.012154,323.559721 543.532359,320.290069 546.95053,317.991095 C553.276697,313.750766 554.246029,313.239883 572.714355,304.91249 C579.193574,302.000456 585.927881,298.168834 588.733842,295.86986 L590.978611,293.979593 L586.642126,289.483822 C581.540378,284.11955 578.326277,280.236839 571.183831,270.683326 C568.224817,266.749527 565.112751,262.713551 564.245454,261.742873 C563.32714,260.772195 561.69458,258.83084 560.572196,257.400367 C558.27641,254.488334 547.664775,244.06632 539.042822,236.249809 C530.624938,228.586564 524.247754,222.353791 516.85022,214.53728 C514.758504,212.391572 509.962861,206.10771 509.962861,205.596827 C509.962861,205.290297 510.371001,205.034856 510.881175,205.034856 C511.442368,205.034856 513.585102,207.129476 516.084958,210.143686 C520.778566,215.7634 530.522903,225.470177 540.981486,234.819337 C555.878588,248.204472 563.12307,256.072071 573.836739,270.427885 C579.346627,277.7846 581.030203,279.879221 583.223955,282.280371 L585.468724,284.681521 L590.162331,281.309693 C592.764223,279.419426 595.978324,276.967188 597.25376,275.843245 C599.651582,273.697536 607.96743,266.851703 609.599989,265.727761 C610.416269,265.114701 609.140832,263.684229 596.845621,251.269771 C581.285291,235.534573 570.673656,223.88644 556.84792,207.282741 C546.593408,194.868283 537.25721,182.862532 527.97203,169.886103 C526.900663,168.404542 525.778278,166.922981 525.472173,166.565363 C524.859964,165.850127 517.921587,155.428113 516.03394,152.311726 C511.59542,145.108275 507.667075,135.554763 503.840764,122.782687 C501.800065,116.039031 500.728698,111.594348 495.62695,89.0644062 C494.504566,84.159929 492.820989,77.0075665 491.80064,73.227032 C489.964011,66.1768461 485.678543,52.9449754 484.913281,52.025386 C484.709211,51.7188561 483.739879,49.6242357 482.770547,47.4274386 C480.780865,42.7273147 476.03624,34.6042744 472.516034,29.8019738 C469.761091,26.0214393 460.47591,16.3146616 456.853669,13.5048049 L454.455848,11.5634494 L451.19073,12.2786856 C449.456136,12.6363038 446.701192,13.1982751 445.170668,13.4537166 C441.650462,14.015688 429.508303,16.4168382 419.406843,18.562547 C415.22341,19.4821365 410.019628,20.5039025 407.927911,20.8615207 C402.979216,21.7300218 362.879481,29.9552387 358.134856,31.0791814 C354.920755,31.845506 354.512615,32.0498592 354.665667,33.020537 C356.859419,46.9676439 362.369306,59.4842783 374.20536,77.1608314 C382.419174,89.4220243 385.1231,94.6330313 389.306533,105.770282 C392.826738,115.119441 397.112206,134.635173 397.214241,141.685359 C397.214241,143.218008 397.826451,144.137598 401.499709,147.96922 C410.631837,157.471645 418.692598,170.141544 423.386206,182.351649 C425.171818,187.051773 425.477922,188.073539 427.314552,196.349844 C430.681705,211.574159 430.885775,212.289395 433.385631,219.492846 C435.987522,226.90065 441.140287,235.228043 450.731573,247.438148 C464.200186,264.501641 469.608038,274.77039 469.659056,283.097784 C469.659056,284.885875 469.506003,285.243493 468.638706,285.243493 C467.873444,285.243493 467.618357,284.885875 467.618357,283.761932 C467.618357,281.667311 466.240885,276.456304 464.557308,272.215975 C462.465592,266.95388 456.598582,258.371045 446.854244,246.263117 C443.538109,242.073876 436.191592,231.140979 434.508015,227.769151 C430.528652,219.697199 429.76339,217.142784 425.273853,197.116169 C424.661643,194.306312 423.488241,189.810541 422.671961,187.153949 C418.641581,174.330785 408.387068,157.675998 398.795783,148.429015 C392.826738,142.656037 388.235166,140.101622 380.123387,138.109178 C376.501147,137.240677 374.052308,136.985235 368.644455,136.985235 C364.869162,136.985235 361.195904,137.240677 360.532677,137.496118 C359.46131,137.904825 359.716397,138.007001 362.573376,138.568973 C368.236316,139.692915 374.868587,142.094066 379.562195,144.750657 C382.062051,146.130042 384.204785,147.305073 384.30682,147.305073 C384.868012,147.305073 392.367581,153.844375 395.173542,156.807497 C404.407705,166.463186 411.805239,180.20594 416.03969,195.328078 C416.600882,197.422699 417.774284,201.458675 418.590563,204.268531 C419.406843,207.078388 420.580245,211.318717 421.192455,213.719867 C423.080101,221.127671 426.294202,230.630096 428.538971,235.432397 C432.467316,243.810878 434.099876,246.263117 446.088982,261.334167 C449.252066,265.370143 452.007009,268.997412 452.160062,269.406119 C452.364132,269.814825 453.384481,271.500739 454.455848,273.084476 C456.598582,276.30304 460.322858,283.608667 462.057452,287.900085 C464.047133,292.957827 464.965448,296.125301 467.108182,305.423373 C467.975479,309.254996 468.230566,311.707234 467.720392,312.013764 C466.802077,312.575735 465.577658,311.707234 465.577658,310.583291 C465.577658,309.970232 465.016465,306.598404 464.302221,303.073311 C462.618644,294.490476 458.996403,285.090228 454.404831,277.324806 C453.384481,275.638892 452.262097,273.646448 451.853957,272.880123 C451.292765,271.756181 449.456136,269.35503 444.762528,263.530964 C444.558458,263.275522 443.129969,261.436343 441.599445,259.443899 C440.119938,257.502544 438.130256,254.948129 437.211942,253.824186 C432.059177,247.335971 426.702342,237.884635 423.692311,229.761595 C421.753647,224.601676 415.070358,200.947791 415.070358,199.261877 C415.070358,198.699906 414.764253,197.575963 414.356113,196.707462 C413.947973,195.787873 413.233728,193.795429 412.774571,192.26278 C412.264396,190.730131 410.937942,187.153949 409.815558,184.344093 C399.203923,158.084705 381.704929,143.524538 356.247209,139.744004 C347.523221,138.415708 348.74764,136.985235 360.07352,135.299321 C362.828463,134.890615 366.858844,134.532997 369.001578,134.532997 C376.909286,134.532997 387.010746,137.1385 392.673686,140.663593 L395.22456,142.196242 L394.867437,139.53965 C393.694036,130.241579 391.449267,119.308682 389.35755,113.024821 C384.765977,99.0266254 381.806964,92.9982056 373.082976,79.6641583 C366.348669,69.3954093 362.777446,63.3159011 359.920467,57.0320397 C358.798083,54.5798012 357.420611,51.6166795 356.910436,50.4927369 C355.941104,48.4492047 352.318863,34.7575393 352.318863,33.1738019 C352.318863,32.1009475 351.655636,32.1520358 344.666242,33.6335966 C341.452141,34.3488329 324.1062,37.8739258 306.148049,41.5011954 C288.189897,45.128465 273.088725,48.2959398 272.527533,48.500293 C271.660236,48.8579111 271.609218,49.2666176 271.915323,54.5287129 C272.425498,62.4473999 273.037707,69.5486742 273.956022,79.3576285 C274.364162,84.0066641 274.976371,90.4437904 275.282476,93.6623536 C275.537564,96.8809167 276.047738,102.091924 276.302826,105.157222 C276.608931,108.273608 277.068088,113.433527 277.323175,116.65209 C277.578263,119.870653 278.03742,124.621866 278.292507,127.125193 C278.598612,129.679608 279.057769,134.277555 279.312857,137.342853 C279.618962,140.45924 280.078119,145.363717 280.384224,148.326839 C282.68001,172.338341 284.006465,188.686599 284.975797,206.056622 C285.639024,217.85802 287.3226,245.088086 288.036845,255.867718 C289.516352,277.631335 289.771439,281.054252 291.608068,300.569984 C291.863156,303.226576 292.220278,307.415817 292.424348,309.868055 L292.78147,314.363826 L298.699497,308.590848 C303.801245,303.635282 316.453579,292.906738 317.218841,292.906738 C317.371893,292.906738 319.05547,291.884972 320.943116,290.607765 C326.861143,286.622877 335.585132,282.842342 343.033683,281.10534 C344.360137,280.79881 348.54357,280.134662 352.369881,279.674868 L359.308257,278.857455 L357.624681,274.361684 C356.655349,271.909445 355.328894,266.95388 354.563632,263.377699 C353.849388,259.801517 353.18616,256.838396 353.135143,256.736219 C353.033108,256.685131 351.145461,257.502544 348.95171,258.52431 C345.686592,260.108047 344.207085,260.465665 341.146036,260.670019 C333.850537,261.027637 331.197629,259.086281 327.218266,250.554534 C325.840794,247.591413 324.463322,244.67938 324.208235,244.117408 C323.953147,243.555437 323.08585,241.35864 322.269571,239.264019 L320.841081,235.432397 L317.882068,235.125867 C314.616949,234.768249 312.525233,233.491041 311.810988,231.396421 C311.402849,230.374654 311.555901,229.455065 312.474216,227.360445 C315.739334,220.054817 316.861718,212.698101 315.586281,207.333829 C315.331194,206.209887 314.974072,203.246765 314.770002,200.69235 C314.463897,195.685696 315.229159,192.007338 316.606631,192.007338 C317.422911,192.007338 317.473928,192.978016 316.861718,196.962904 C316.657648,198.2912 316.606631,199.926025 316.810701,200.641262 C317.116806,201.918469 317.320876,201.969558 320.585994,201.969558 C324.1062,201.969558 326.708091,202.991324 328.187598,204.983767 C329.76914,207.0273 327.830475,207.742536 325.789776,205.80118 C324.616375,204.677238 323.749077,204.370708 320.994134,204.166355 C317.933085,203.910913 317.62698,203.962001 317.62698,204.830503 C317.677998,207.742536 318.800382,208.611037 323.596025,209.377362 C325.993846,209.73498 326.504021,210.194774 326.044864,211.625247 C325.738759,212.698101 323.749077,213.719867 321.912448,213.719867 C320.943116,213.719867 320.483959,213.362249 320.126837,212.187218 C319.25954,209.837156 318.64733,210.348039 318.64733,213.362249 C318.64733,216.325371 316.402561,224.397323 314.667967,227.871328 C314.055757,229.046359 313.698635,230.374654 313.851687,230.834449 C314.361862,232.162745 316.912736,233.133423 319.871749,233.133423 L322.67771,233.133423 L323.442973,235.585661 C324.718409,239.774902 326.044864,242.891289 329.054895,249.226239 C331.248646,253.824186 332.371031,255.663365 333.646468,256.531866 C337.319726,259.035193 341.197054,259.13737 347.217116,256.787308 C352.829038,254.59051 352.727003,254.948129 350.839357,246.058764 C349.921042,241.920611 348.74764,237.016134 348.186448,235.176955 C346.808976,230.834449 342.574526,221.893996 340.431792,218.879786 C339.513477,217.602579 337.829901,215.252517 336.758534,213.719867 C334.921904,211.012187 326.963178,200.947791 326.299951,200.436908 C326.146899,200.283644 324.769427,198.59773 323.28992,196.605286 C315.382212,186.030007 312.98439,173.513372 317.014771,163.500065 C317.933085,161.303268 319.310557,158.544499 320.126837,157.369468 C322.67771,153.69111 328.95286,147.867044 332.932223,145.516982 C338.187023,142.400595 338.544145,142.809302 336.197341,149.859488 C331.197629,165.032714 332.881205,171.929635 345.278452,186.336537 C352.931073,195.225901 358.44096,204.677238 361.348956,213.975309 C363.440673,220.5657 363.89983,222.915762 364.563057,230.068125 C366.246634,247.744678 369.76684,259.443899 376.552164,269.96809 C379.8683,275.128009 385.888362,281.207517 391.092144,284.630433 C404.458723,293.417621 416.958004,304.708136 423.335188,313.597501 C427.722691,319.779186 432.722404,330.047935 434.763103,337.149209 C437.160924,345.27225 437.722116,348.082106 437.058889,348.746254 C436.140575,349.665844 435.120225,348.695166 434.763103,346.447281 C434.252928,343.279806 432.365282,335.667649 431.906124,335.054589 C431.702054,334.799147 430.936792,332.959968 430.17153,330.967525 C428.487953,326.676107 424.049433,318.297625 422.978066,317.429124 C422.569926,317.071506 422.212804,316.560623 422.212804,316.305181 C422.212804,316.04974 421.447542,314.874709 420.580245,313.699678 C412.927624,303.9929 405.93823,297.657951 393.387931,289.075116 C389.76569,286.571789 385.429205,283.353225 383.745628,281.973841 C375.276727,274.617126 367.879193,261.078725 364.665092,246.927265 C364.154918,244.628291 363.593725,240.387962 362.522358,230.068125 C361.604044,221.434201 359.971485,215.507958 356.349244,207.436006 C353.084126,200.07929 347.778308,192.313868 340.635862,184.344093 C338.64618,182.147296 337.013621,180.103764 337.013621,179.848322 C337.013621,179.592881 336.350394,178.468938 335.534114,177.293907 C332.728153,173.155754 331.758821,169.579573 331.707804,163.397888 C331.707804,158.033616 332.166961,154.815053 333.748503,149.961664 C334.666817,147.151808 334.666817,147.151808 333.289345,147.918132 C328.850825,150.370371 321.657361,158.23797 319.718697,162.73374 C318.494278,165.594685 317.116806,171.725282 317.116806,174.228609 C317.167823,176.8852 318.749365,183.83321 320.024802,186.643066 C321.606344,190.270336 324.361287,194.306312 330.024227,201.254321 C332.881205,204.830503 335.993271,208.764302 336.911586,210.092598 C337.778883,211.369805 338.901268,212.902455 339.360425,213.413338 C340.686879,214.945987 344.360137,220.87223 346.094731,224.19297 C349.819007,231.294244 352.727003,241.66517 355.430929,256.889484 C358.951135,277.120452 366.756809,291.220824 379.8683,301.029779 C384.357838,304.350518 383.592576,303.941812 393.438948,308.948466 C401.652762,313.137707 405.93823,316.305181 409.458435,320.903129 C413.029659,325.501076 421.192455,337.864446 421.192455,338.63077 C421.192455,339.039477 420.784315,339.397095 420.27414,339.397095 C419.712948,339.397095 417.621231,336.740503 414.101026,331.529496 C405.479072,318.604155 402.367006,315.74321 390.58197,310.02132 C381.296789,305.474461 377.164374,302.562428 371.042277,296.227478 C367.011896,292.140414 365.481372,290.096882 362.471341,284.783698 L360.328607,281.054252 L357.726716,281.360782 C356.298226,281.514047 354.61465,281.667311 354.00244,281.667311 C352.931073,281.667311 352.931073,281.7184 354.41058,284.73261 C355.226859,286.418524 355.890087,288.053349 355.890087,288.359879 C355.890087,288.615321 356.349244,289.790352 356.910436,290.914294 C360.022502,296.942714 366.144599,315.947563 367.113931,322.435778 C368.848525,333.879558 369.001578,343.433071 367.624106,349.359314 C365.022215,360.292211 356.247209,369.079399 347.115081,369.9479 C344.51319,370.152254 343.747928,369.998989 340.890949,368.568516 C337.115656,366.729337 332.677136,362.284655 330.840506,358.453032 L329.616087,356.000793 L325.585707,358.401944 C323.340938,359.781328 321.402274,360.854182 321.198204,360.854182 C320.177854,360.854182 324.157217,375.261084 326.759108,381.034062 C327.269283,382.158005 327.881493,383.639566 328.085563,384.354802 C328.289633,385.070038 329.616087,388.492955 330.993559,392.018048 C337.166673,407.548892 337.778883,411.176162 337.778883,435.187664 C337.778883,453.937072 337.166673,459.863315 333.18731,479.838842 C331.350681,488.983648 329.616087,497.770836 329.361,499.303486 C329.054895,500.836135 328.238615,505.331905 327.524371,509.265705 C326.759108,513.199504 325.993846,517.695275 325.738759,519.227924 C325.534689,520.760573 325.075532,523.417165 324.769427,525.103079 C324.463322,526.788993 324.055182,529.036878 323.90213,530.109733 C323.69806,531.489117 323.340938,532 322.67771,532 C322.167536,532 321.606344,531.795647 321.453291,531.489117 Z M161.25842,467.526561 C164.370486,466.862413 174.267876,463.03079 178.961484,460.680728 C183.859161,458.228489 190.593468,455.520809 194.011639,454.60122 C197.072687,453.783807 203.041732,453.119659 215.081856,452.302246 C223.907879,451.740275 223.958897,451.689186 222.581425,449.441301 C219.928516,445.303148 211.204528,433.859368 207.378217,429.619039 C203.449872,425.225445 193.858586,413.475135 191.5628,410.256572 C186.001895,402.440062 181.767445,395.083346 179.726746,389.719074 C174.676016,376.28285 173.604649,371.327285 172.737352,357.788884 C172.227177,349.308226 172.890404,331.580584 174.267876,318.195449 C177.737064,284.528256 177.737064,274.77039 174.216859,256.12316 C172.941422,249.379503 169.268163,236.862869 165.798975,227.20718 C155.850568,199.670584 155.39141,197.882493 155.39141,186.54089 C155.39141,178.877644 155.748533,175.659081 157.789232,165.696862 C158.503476,162.171769 159.421791,157.727086 159.778913,155.734643 C161.564525,146.947454 162.023682,141.991889 162.023682,130.650285 C162.023682,124.315336 161.768595,117.469503 161.46249,115.477059 C159.472808,102.040835 155.340393,88.860053 149.167278,76.4455952 C146.922509,71.9498244 146.412335,71.2345882 145.49402,71.4389414 C143.147216,72.0009127 105.29225,79.5619817 100.547625,80.4304829 C97.7416636,80.9413659 93.2521258,81.8098671 90.5992171,82.3718384 C80.3447047,84.5175472 72.8451359,86.0501963 53.8666352,89.8307308 C43.101948,91.9764395 34.2249073,93.7645302 34.1738899,93.8156185 C32.5413307,96.2167687 30.3985967,100.09948 29.7353696,101.836482 C27.5416181,107.660549 25.1437968,118.082563 24.0214124,126.358868 C21.623591,144.699569 21.623591,158.23797 24.0214124,172.0829 C25.2458318,179.081997 28.7150201,194.97046 30.1435094,200.181467 C34.3779598,215.712311 39.2756374,237.169399 40.8061616,247.182706 C44.7345072,272.829035 41.2143014,304.91249 29.9394395,345.527691 C29.3782472,347.622312 28.4599327,350.99414 27.8987405,352.935495 C27.3885657,354.927939 25.7560065,360.547653 24.2764997,365.45213 C22.796993,370.356607 20.9603639,376.691557 20.1440843,379.501413 C19.3278047,382.31127 18.4605076,385.070038 18.2054202,385.63201 C17.8993154,386.193981 17.1850707,388.748396 16.572861,391.251723 C15.9606513,393.806138 14.8382669,397.791026 14.0730048,400.192176 C13.3077426,402.593327 11.9302708,407.395627 11.0629737,410.92072 C10.1446592,414.445813 9.22634464,418.124171 8.92023979,419.094849 C7.64480292,423.743884 4.78782433,437.588815 3.86950978,443.617234 C3.51238745,445.711855 3.10424765,448.521712 2.84916028,449.850008 L2.49203796,452.200069 L3.8184923,451.638098 C5.80817382,450.820685 18.2054202,451.025039 22.7459755,451.995716 C40.3470043,455.827339 48.7648877,455.827339 55.4991944,452.046805 L57.9480332,450.66742 L57.9480332,433.603927 C57.9480332,412.300104 58.2031206,409.592424 63.2538506,381.544945 C65.0394622,371.378373 66.2638816,360.700917 66.4679515,352.577877 C66.6720214,345.987486 66.7230389,345.527691 67.6923709,345.527691 C68.6106854,345.527691 68.6617029,345.936398 68.6617029,351.964817 C68.6617029,357.942149 67.7944058,367.086955 66.6210039,373.626258 C66.3148991,375.158907 65.7537068,378.632912 65.345567,381.289504 C64.9374272,383.946096 64.0191127,389.616897 63.304868,393.806138 C60.6009419,409.234806 60.4989069,410.869632 59.9887322,435.953989 C59.7336448,449.390213 59.325505,461.140523 59.0194002,462.264465 C58.7132953,463.388408 58.4582079,464.512351 58.4582079,464.767792 C58.4582079,465.023234 60.9070467,465.074322 64.2231826,464.921057 C68.6617029,464.665616 71.9268213,464.103644 78.8651979,462.264465 C92.0277064,458.841549 100.190502,457.00237 103.506638,456.644752 L106.414634,456.338222 L106.414634,454.447955 C106.363617,450.922862 105.445302,442.23785 103.608673,428.69945 C103.200533,425.37871 102.792394,419.554643 102.690359,415.671932 C102.588324,409.694601 102.690359,408.621746 103.353586,408.621746 C103.965796,408.621746 104.220883,410.103307 104.68004,416.795875 C105.037163,421.291646 105.547337,426.707006 105.853442,428.801626 C107.792106,442.135674 109.169578,458.483931 108.710421,463.184055 L108.353298,466.606971 L111.363329,466.606971 C115.444727,466.606971 127.484851,464.410174 133.964071,462.519907 C136.923084,461.651406 141.157535,460.01658 143.453321,458.943726 L147.534719,456.951282 L147.126579,453.477277 C146.667422,449.441301 146.3103,447.244504 144.524688,438.508404 C140.85143,420.474233 140.341255,416.438257 140.341255,404.534682 C140.341255,391.404988 141.0555,385.887451 142.739076,385.887451 C143.657391,385.887451 143.708409,386.142893 143.453321,388.33969 C143.300269,389.667986 142.994164,395.492052 142.841111,401.316119 C142.432972,414.701255 143.300269,423.130825 146.463352,436.464872 C147.942859,442.697645 149.728471,455.418633 150.085593,461.957936 L150.442715,468.497238 L154.575131,468.292885 C156.870917,468.190709 159.880948,467.83309 161.25842,467.526561 Z M263.038282,385.121127 C272.680585,383.792831 279.210822,381.136239 297.62813,371.17402 C300.230022,369.743547 302.627843,368.364163 302.984965,368.108721 C303.342087,367.85328 306.352119,366.167366 309.719272,364.430364 C319.412592,359.321533 319.05547,359.525886 324.51434,356.000793 C325.942829,355.081204 328.238615,353.70182 329.616087,352.935495 C331.044576,352.169171 333.493415,350.432168 335.074957,349.052784 C338.136005,346.396192 339.05432,346.038574 339.05432,347.469047 C339.05432,348.541901 336.554464,351.30067 333.901555,353.037672 C332.830188,353.752908 331.911873,354.672498 331.911873,355.081204 C331.911873,356.205147 335.330044,361.109624 337.829901,363.664039 C343.390805,369.232664 350.584269,368.670693 357.777733,362.13139 C361.195904,359.066092 363.338638,355.387734 365.12425,349.614755 C366.195617,346.242927 366.348669,344.761367 366.348669,337.609004 C366.348669,330.609906 366.144599,328.515286 364.971197,323.048838 C362.777446,313.086618 359.716397,303.022222 356.808401,296.534008 C356.247209,295.2568 355.430929,293.315445 355.073807,292.191502 C354.665667,291.016471 353.492265,288.308791 352.420898,286.163082 C350.227147,281.565135 350.380199,281.616223 343.747928,283.199961 C337.778883,284.630433 329.820157,287.848996 325.381637,290.607765 C323.391955,291.884972 321.555326,292.906738 321.402274,292.906738 C321.045151,292.906738 314.20881,297.913392 311.708953,300.008013 C306.301101,304.554872 304.056332,306.598404 298.03627,312.371382 C286.863443,323.048838 285.077831,324.581487 274.976371,331.989291 C270.792939,335.054589 266.201366,338.477505 264.772876,339.652536 C263.29337,340.776479 259.160954,343.790689 255.589731,346.294016 C245.539288,353.344202 241.917048,356.4095 238.855999,360.445476 C235.794951,364.53254 235.029689,366.116278 234.417479,369.539194 C233.295094,376.180673 237.478527,381.902563 245.029114,384.099361 C251.202228,385.887451 255.589731,386.142893 263.038282,385.121127 Z M184.216284,379.859031 C188.603786,378.632912 193.348412,377.560058 202.327487,375.66979 C206.10278,374.852378 212.326912,373.524082 216.102205,372.604492 C219.877499,371.735991 224.571106,370.663137 226.560788,370.203342 C231.509483,369.079399 232.223727,368.670693 232.886955,366.473896 C234.264426,361.82486 238.549894,356.358412 244.416904,351.658288 C248.855424,348.133195 255.385661,343.484159 255.895836,343.484159 C256.099906,343.484159 256.406011,343.279806 256.508046,343.075453 C256.61008,342.820011 257.732465,341.900422 259.058919,341.03192 C260.334356,340.112331 261.762845,339.039477 262.222003,338.63077 C262.630143,338.222064 266.456453,335.361119 270.741921,332.244732 C275.027389,329.179434 279.720997,325.705429 281.200503,324.47931 C284.261552,321.975983 284.261552,321.975983 283.445272,314.210561 C283.190185,311.605057 282.731028,306.39405 282.424923,302.613516 C282.118818,298.832982 281.455591,290.76103 280.894399,284.73261 C278.955734,263.122257 277.578263,243.708702 277.068088,231.345332 C276.659948,221.434201 275.894686,207.946889 274.976371,194.05087 C274.211109,183.015797 273.956022,179.89941 272.78262,167.382776 C272.476515,164.624008 272.017358,159.872795 271.762271,156.756409 C271.456166,153.69111 270.997008,148.837722 270.690904,146.027865 C270.435816,143.218008 270.078694,138.977679 269.925641,136.576529 C269.772589,134.175378 269.415467,130.650285 269.160379,128.657842 C268.905292,126.716486 268.446135,122.425069 268.14003,119.206505 C267.833925,115.987942 267.374768,111.134553 267.11968,108.477962 C266.660523,103.931103 266.405436,100.967981 265.129999,85.7436665 C264.517789,78.8467455 263.854562,70.6726168 262.987265,58.8201304 L262.375055,50.7481784 L260.793513,50.7481784 C259.926216,50.7481784 257.477378,51.1057965 255.385661,51.5145029 C247.477952,53.0982403 243.651642,53.7623883 233.958322,55.3461257 C209.112811,59.2799251 202.225452,60.4549561 196.715565,61.4767222 C195.440128,61.7321637 190.848555,62.5495765 186.51207,63.3159011 C182.175585,64.0822257 177.686047,64.8485502 176.563662,65.1039917 C175.441278,65.308345 170.390548,66.330111 165.339818,67.3518771 C160.289088,68.3736432 154.524113,69.5486742 152.534432,70.0084689 L148.912191,70.8258818 L151.871204,76.752125 C155.901585,84.8751653 161.003332,98.6690073 161.003332,101.376687 C161.003332,102.704983 161.66656,102.909337 163.146066,102.143012 C166.92136,100.150568 170.696653,99.1798904 175.288225,98.9244488 C180.798113,98.617919 184.216284,99.1798904 188.399717,101.121246 C198.042019,105.51484 204.215134,113.484615 206.970077,124.877307 C208.143479,129.883961 208.194497,132.182935 207.12313,136.52544 C203.806994,149.910576 193.195359,159.157559 178.961484,161.047826 C174.727033,161.609798 170.186478,161.098915 165.135748,159.566265 C163.350136,159.004294 161.819612,158.595588 161.717577,158.697764 C161.615542,158.748853 160.748245,162.73374 159.727896,167.484953 C157.687197,177.293907 156.921935,187.715921 157.840249,194.153047 C158.401441,198.189023 161.105367,207.487094 163.962346,215.252517 C166.360167,221.791819 172.227177,238.65096 172.788369,240.541227 C173.553631,243.197819 176.716715,256.736219 177.277907,259.699341 C179.675728,273.033388 179.522676,291.833884 176.767732,316.6628 C176.512645,319.217215 176.20654,321.618365 176.053488,322.027071 C175.645348,323.406456 174.267876,344.557013 174.267876,349.308226 C174.318893,361.109624 177.890117,381.647122 179.828781,381.085151 C180.287938,380.931886 182.27762,380.421003 184.216284,379.859031 Z M290.485684,316.560623 C290.587719,316.509535 290.332631,312.371382 289.873474,307.364728 C289.414317,302.358074 288.853125,294.694829 288.54702,290.352323 C288.240915,286.009817 287.679723,279.01072 287.271583,274.77039 C285.639024,257.91125 285.077831,249.226239 283.445272,217.55149 C282.731028,204.370708 282.016783,192.26278 281.404573,184.599534 C280.435241,172.593783 278.343525,149.604046 278.088437,148.071397 C277.935385,147.253984 277.476228,142.502772 277.068088,137.598295 C276.659948,132.693818 276.047738,126.358868 275.792651,123.549011 C275.486546,120.739155 275.027389,115.936854 274.772302,112.820467 C274.517214,109.755169 274.007039,104.90178 273.751952,102.091924 C272.068375,85.9480197 270.588869,68.16929 269.874624,55.1928608 L269.517502,49.164441 L267.170698,49.5220591 C265.895261,49.7264123 264.721859,49.9307655 264.670842,50.0329421 C264.415754,50.186207 265.640174,66.5855525 267.11968,84.2110174 C267.374768,87.3274039 267.833925,92.8449407 268.14003,96.4722103 C268.446135,100.150568 268.905292,104.390897 269.160379,105.923546 C269.415467,107.456196 269.874624,112.207408 270.180729,116.396649 C270.486834,120.636978 270.894973,126.154515 271.201078,128.657842 C271.456166,131.212257 271.915323,136.014557 272.221428,139.386385 C272.527533,142.758213 272.98669,146.896366 273.241777,148.58228 C274.466197,156.654232 277.323175,189.963806 277.323175,196.196579 C277.323175,198.59773 277.527245,202.633706 277.83335,205.188121 C278.088437,207.793624 278.547595,215.048163 278.8537,221.383113 C279.823032,241.614081 281.098468,261.691785 282.373905,276.047598 C282.68001,279.01072 283.241202,285.805464 283.649342,291.118648 C284.108499,296.48292 284.669692,303.379841 284.975797,306.445139 C285.230884,309.561525 285.639024,313.955119 285.792076,316.305181 L286.149198,320.545511 L288.240915,318.604155 C289.363299,317.531301 290.383649,316.611711 290.485684,316.560623 Z M175.900435,157.471645 C175.696365,156.092261 175.7984,155.938996 176.869767,156.092261 C177.635029,156.194437 178.145204,156.70532 178.349274,157.522733 C178.604361,158.646676 178.910466,158.799941 180.389973,158.646676 C183.093899,158.442323 190.287363,155.428113 189.471083,154.91723 C189.113961,154.661788 188.399717,154.457435 187.889542,154.457435 C186.971227,154.457435 186.10393,153.129139 186.665122,152.567168 C186.818175,152.413903 188.093612,152.567168 189.522101,152.924786 C190.899573,153.231316 192.583149,153.333492 193.246377,153.129139 C195.542163,152.413903 200.745945,146.538748 202.531557,142.604949 C205.592606,135.963469 206.10278,130.80355 204.419204,124.162071 C202.582575,117.060797 198.042019,109.601904 195.59318,109.704081 C194.725883,109.755169 194.419779,109.499728 194.521814,108.784491 C194.572831,108.22252 194.215709,107.456196 193.756551,107.098577 C191.76687,105.51484 187.838524,103.471308 187.226315,103.726749 C186.869192,103.828926 186.10393,103.471308 185.542738,102.909337 C184.930528,102.296277 184.012214,101.836482 183.502039,101.836482 C182.940847,101.836482 182.175585,101.683217 181.767445,101.529952 C181.308288,101.376687 180.951165,101.683217 180.747095,102.347365 C180.338955,103.880014 178.553344,103.522396 178.706396,101.938659 C178.808431,101.070158 178.604361,100.814716 177.686047,100.865804 C176.155523,100.916893 171.819037,101.683217 172.635317,101.785394 C173.502614,101.88757 173.400579,103.215866 172.431247,103.573484 C171.870055,103.777838 171.512932,103.522396 171.35988,102.80716 C171.002758,101.581041 170.135461,101.683217 165.186765,103.777838 C161.46249,105.361575 161.66656,104.390897 163.350136,113.586792 C164.319468,118.848887 164.676591,137.853736 163.911329,144.239774 L163.554206,147.611602 L165.594905,147.407249 C167.482552,147.202896 167.635604,147.305073 167.635604,148.531192 C167.635604,149.706223 167.431534,149.859488 165.849993,149.859488 C164.574556,149.859488 163.911329,149.604046 163.707259,148.990987 C163.452171,148.377927 163.146066,149.246428 162.737927,151.392137 C161.87063,155.887908 161.87063,155.887908 163.197084,156.296614 C163.809294,156.449879 165.237783,157.062939 166.360167,157.573822 C168.400866,158.493411 170.186478,158.799941 174.063806,158.953206 C176.104505,159.055382 176.104505,159.055382 175.900435,157.471645 Z M17.644228,94.8884728 C20.8583289,94.1732366 32.1331909,91.9253512 42.6427907,89.8307308 C53.1523905,87.7361103 62.9477457,85.7947548 64.3252175,85.4882249 C65.7537068,85.2327834 68.5086505,84.6708121 70.4473145,84.2621057 C72.4369961,83.8533992 76.6714465,82.9338098 79.9365649,82.2185735 C83.2016833,81.5033373 87.5381686,80.6859244 89.6298851,80.3793946 C91.7216016,80.0728647 95.8029996,79.2554519 98.7620131,78.5913039 C101.721027,77.8760677 111.363329,75.9347121 120.189353,74.2487981 C129.015376,72.5628841 138.351574,70.7237052 140.85143,70.1617338 C143.402304,69.5997625 149.473383,68.3736432 154.371061,67.3518771 C159.268738,66.3811993 165.849993,65.0529034 168.911041,64.3887555 C172.023107,63.7246075 176.257557,62.9071947 178.349274,62.5495765 C180.44099,62.1919584 183.093899,61.6810754 184.216284,61.4256339 C186.92021,60.8125742 199.368474,58.6668655 216.867468,55.8570088 C225.948578,54.3754479 237.733615,52.3830041 242.631292,51.5145029 C245.029114,51.0547082 249.365599,50.3905602 252.324613,49.9818538 C255.283626,49.5220591 258.701797,49.011176 259.977234,48.7557345 C268.446135,47.0698205 326.095881,35.2684223 330.636437,34.2466563 C333.748503,33.53142 337.880918,32.7140071 339.819582,32.356389 C343.798945,31.6411528 342.676561,31.8965943 371.705504,25.9192627 C383.337488,23.5181125 394.153193,21.3213154 395.683717,21.0147856 C399.45901,20.2995493 414.40713,17.2342511 421.702629,15.701602 C424.91673,15.037454 429.508303,14.1178646 431.906124,13.7091581 C434.303946,13.3004517 438.997553,12.3808622 442.364707,11.665626 C445.73186,11.001478 453.639569,9.46882892 459.965735,8.34488623 C466.291902,7.22094355 471.852807,6.14808917 472.362982,5.99482426 C472.975192,5.79047105 473.230279,5.1774114 473.230279,3.90020381 L473.230279,2.11211317 L469.812108,2.4697313 C467.873444,2.67408451 464.863413,3.18496755 463.026784,3.54258568 C461.190155,3.95129211 454.915005,5.2284997 448.996978,6.35244239 C443.129969,7.47638507 433.028509,9.41774061 426.549289,10.6949482 C420.121088,11.9721558 413.080676,13.35154 410.98896,13.7602464 C406.499422,14.5776593 397.826451,16.3657499 387.520921,18.562547 C383.439523,19.4310482 378.388793,20.5039025 376.297077,20.8615207 C372.623818,21.5767569 336.911586,28.8823844 332.677136,29.8019738 C329.412017,30.5172101 320.943116,32.2542124 314.055757,33.6335966 C310.535551,34.3488329 301.505458,36.1880118 293.903855,37.7206609 C272.17041,42.1653433 242.88638,47.4785269 218.142904,51.4123263 C213.857437,52.1275626 203.806994,53.8645649 195.695215,55.3461257 C184.114249,57.4407462 180.083868,58.2070707 172.227177,59.7908081 C167.329499,60.7614859 161.564525,61.8854286 159.472808,62.294135 C157.381092,62.6517532 152.891554,63.5713426 149.524401,64.2354906 C146.157247,64.9507268 139.269888,66.330111 134.219158,67.3518771 C121.209702,69.9062923 122.230052,69.7019391 96.9764015,74.8107695 C84.3750852,77.3651846 71.6207165,79.8685115 68.6617029,80.4304829 C65.7026894,80.9413659 61.1111166,81.8098671 58.4582079,82.3718384 C48.5098003,84.4153706 39.989882,86.1523729 27.5926356,88.6046115 C20.6032415,89.9839957 13.5118125,91.3633799 11.9302708,91.6699097 C8.86922232,92.2829693 8.76718737,92.4362343 9.27736212,95.1950027 C9.58346697,96.5232986 9.78753687,96.7787401 10.7058514,96.4722103 C11.3180611,96.3189453 14.4301271,95.6037091 17.644228,94.8884728 Z"/>
    <path d="M102.167893,387.509399 C102.116823,394.907986 101.963613,397 101.452915,397 C101.095425,397 100.686866,396.795901 100.533657,396.591802 C100.022958,395.724382 99.7165388,387.3053 100.074028,382.968198 C100.431517,379.243392 100.635797,378.375972 101.350775,378.222898 C102.116823,378.069823 102.218963,378.886219 102.167893,387.509399 Z M105.027806,275.203958 C105.793854,275.510106 107.938789,284.133286 108.858047,290.613428 C110.236934,300.359152 110.594423,308.012862 109.981584,315.1053 C108.909117,328.422756 108.347348,335.004947 107.836649,339.699223 C107.5813,342.301484 107.37702,346.485512 107.37702,348.985724 C107.37702,353.475901 106.815252,356.180212 105.895994,356.180212 C105.640645,356.180212 105.283155,355.823039 105.129946,355.363816 C104.823527,354.54742 105.487435,341.995336 106.355623,332.963958 C107.5813,320.156749 107.989859,310.462049 107.68344,302.859364 C107.325951,293.776961 106.713112,289.337809 104.261758,278.520565 C103.59785,275.510106 103.751059,274.744735 105.027806,275.203958 Z M343.319857,143.713216 C343.319857,149.019788 346.384049,156.571449 350.520709,161.367774 C351.644247,162.694417 355.729837,166.572297 359.560078,169.990954 C367.935538,177.49159 370.029403,179.634629 374.063923,184.992226 C379.324121,191.982615 383.86934,202.136537 385.656785,211.065866 C387.393161,219.638021 387.699581,221.934134 388.516699,231.424735 C390.253074,251.63053 393.623686,258.212721 408.127532,269.489187 C410.476746,271.275053 412.774891,273.009894 413.23452,273.265018 C414.766616,274.234488 421.712119,279.847208 423.908124,281.888198 C427.431946,285.204806 432.845353,292.705442 435.858476,298.522261 C439.075878,304.696254 441.680442,311.584594 445.970311,325.310247 C447.604547,330.667845 449.698412,336.688763 450.51553,338.780777 C451.383718,340.872792 452.098697,342.760707 452.098697,343.066855 C452.098697,343.321979 453.375444,346.077314 454.95861,349.189823 C457.461034,354.139223 457.665313,354.904594 457.001405,355.567915 C456.337497,356.231237 456.133217,356.129187 455.213959,354.598445 C452.200836,349.700071 448.217386,340.005371 444.744634,328.881979 C439.892996,313.523534 437.237362,306.124947 434.837078,301.328622 C429.78116,291.225724 423.857054,284.082261 415.124105,277.60212 C398.526395,265.254134 393.674756,260.304735 390.355214,252.191802 C387.699581,245.762686 386.984602,241.884806 385.707855,227.036608 C384.788598,216.372438 384.175759,212.18841 383.154361,209.484099 C382.899012,208.922827 382.030824,206.320565 381.111566,203.667279 C377.281325,192.237739 371.20401,183.30841 361.705013,174.991378 C349.652522,164.531307 346.894748,161.469823 344.085905,155.39788 C341.94097,150.856678 340.357804,142.89682 341.225992,141.417102 C342.145249,139.937385 343.319857,141.213004 343.319857,143.713216 Z M491.473573,310.104876 C491.728922,310.36 493.107809,316.07477 494.435626,322.810035 C495.814512,329.494276 497.295539,335.923392 497.704098,337.045936 C500.76829,345.362968 502.351457,348.169329 506.232767,351.945159 C507.254165,352.965654 507.764864,353.884099 507.611654,354.343322 C507.100955,355.61894 506.641326,355.363816 503.730343,352.455406 C498.214796,346.89371 495.354883,339.750247 492.4439,323.779505 C491.831062,320.411873 490.911804,315.972721 490.401105,313.931731 C489.583987,310.666148 489.583987,310.155901 490.247896,309.900777 C490.656455,309.747703 491.218223,309.849753 491.473573,310.104876 Z M196.596097,347.199859 C196.238608,348.016254 195.166141,348.271378 194.553302,347.659081 C193.991534,347.148834 194.144743,345.567067 194.757582,345.158869 C195.5747,344.699647 196.953586,346.230389 196.596097,347.199859 Z M348.937543,138.304594 C349.550382,138.304594 350.26536,138.91689 350.776059,139.937385 C352.767784,143.76424 358.079051,147.74417 369.365494,153.867138 C378.047374,158.510389 380.243378,160.092155 384.533248,164.429258 C390.202005,170.246078 393.419407,174.532155 397.300718,181.675618 C403.480173,193.054134 405.931527,202.238587 408.178602,222.75053 C409.199999,232.241131 411.447074,241.017385 413.745218,244.436042 C414.204847,245.150389 414.919826,246.323958 415.277315,247.089329 C416.451922,249.385442 422.631377,256.426855 430.138649,264.080565 C438.973738,273.009894 440.505834,274.846784 444.591425,281.020777 C448.064176,286.276325 452.098697,293.470813 452.098697,294.389258 C452.098697,294.695406 452.660465,296.124099 453.324374,297.603816 C455.367169,302.145018 457.001405,307.604664 459.19741,317.197314 C460.372017,322.197739 461.750904,328.269682 462.312672,330.667845 C463.538349,335.923392 463.844769,340.413569 462.976581,340.719717 C462.670161,340.821767 462.261602,340.719717 462.108393,340.464594 C461.955183,340.20947 461.495554,338.219505 461.035925,335.974417 C457.716383,319.595477 454.8054,307.298516 453.630793,304.900353 C453.324374,304.339081 452.660465,302.400141 452.047627,300.563251 C450.51553,295.715901 445.817102,286.735548 441.833651,280.918728 C439.637646,277.70417 435.092427,272.499647 429.78116,266.937951 C419.669324,256.47788 414.817686,251.069258 414.817686,250.252862 C414.817686,249.946714 414.409127,249.334417 413.949498,248.977244 C412.723821,247.956749 409.404279,240.660212 408.229672,236.272085 C407.667903,234.180071 406.850785,229.587845 406.391156,226.067138 C404.80799,213.310954 403.020544,202.238587 402.101286,198.973004 C399.649932,190.706996 395.053643,181.165371 390.406284,174.889329 C383.001152,164.99053 380.090169,162.388269 369.620844,156.673498 C356.955514,149.734134 352.103876,146.162403 349.346102,141.92735 C347.660796,139.223039 347.558657,138.304594 348.937543,138.304594 Z M245.67425,328.269682 C245.367831,329.086078 243.937874,329.341201 243.478245,328.626855 C243.273966,328.269682 243.325036,327.810459 243.631455,327.504311 C244.346433,326.789965 245.929599,327.402261 245.67425,328.269682 Z M128.826369,88.0452297 C130.052046,88.8106007 133.320518,97.6889046 134.750475,104.373145 C135.874012,109.424594 136.027222,124.374841 135.056894,130.140636 C133.626938,138.457668 129.796697,154.020212 127.089993,162.796466 C126.426085,164.888481 125.506827,168.460212 124.996128,170.7053 C124.536499,172.950389 123.821521,176.215972 123.412962,177.950813 C120.501979,190.706996 120.553049,203.973428 123.464032,213.464028 C123.872591,214.892721 124.48543,216.93371 124.791849,217.90318 C125.098268,218.87265 126.783574,223.158728 128.57102,227.342756 C132.350191,236.32311 133.984427,241.323534 135.976152,249.742615 C139.908533,266.376678 142.002398,287.143746 141.900258,308.472085 C141.849188,318.626007 141.849188,318.677032 140.725651,318.830106 L139.551044,318.98318 L139.551044,307.349541 C139.499974,274.132438 135.465453,248.671095 127.141063,229.893993 C126.068596,227.393781 124.740779,224.179223 124.23008,222.75053 C123.719381,221.372862 122.851194,218.923675 122.238355,217.341908 C119.94021,211.014841 119.378442,206.983887 119.429512,196.217668 C119.480582,187.390389 119.633791,185.094276 120.808398,179.124382 C121.523377,175.348551 122.595844,170.756325 123.157613,168.919435 C123.668312,167.082544 124.536499,163.867986 124.996128,161.775972 C125.506827,159.683958 126.426085,156.36735 127.038923,154.377385 C128.213531,150.805654 130.818094,140.549682 131.839492,135.24311 C132.145911,133.712367 132.65661,131.059081 133.014099,129.375265 C134.341916,122.64 133.729078,107.383604 131.839492,101.311661 C130.307396,96.260212 129.643487,94.3722968 128.46888,91.7190106 C127.498552,89.6269965 127.294273,88.6065018 127.702832,88.1983039 C127.958181,87.9431802 128.51995,87.8411307 128.826369,88.0452297 Z M68.5128434,254.385866 C69.9938698,254.385866 72.3430842,260.559859 74.2837396,269.438163 C75.2868979,273.998498 75.4525981,276.196337 75.4581961,285.506276 L75.4583468,286.021201 C75.4583468,296.379223 75.2029974,299.287633 73.7219709,306.635194 C73.3644818,308.52311 72.3430842,309.288481 71.8323854,308.063887 C71.6791758,307.655689 71.9345252,304.696254 72.3430842,301.532721 C73.4155516,293.930035 73.4155516,278.826714 72.3941541,271.88735 C71.9345252,269.029965 70.8109879,264.335689 69.7895903,261.529329 C67.7467952,255.661484 67.4914458,254.385866 68.5128434,254.385866 Z M208.903938,304.54318 C208.18896,305.257527 207.98468,305.257527 206.861143,304.594205 C205.635466,303.879859 205.686536,302.247067 207.014352,301.583746 C208.903938,300.563251 210.436034,303.012438 208.903938,304.54318 Z M263.906196,304.134982 C263.344428,305.002403 262.118751,304.696254 262.118751,303.67576 C262.118751,303.114488 262.32303,302.553216 262.57838,302.400141 C263.191218,301.991943 264.314755,303.471661 263.906196,304.134982 Z M488.920079,236.170035 C491.779992,242.139929 495.303813,247.599576 502.147177,256.681979 C502.708946,257.396325 505.26244,260.763958 507.867003,264.13159 C514.608227,272.907845 517.059581,276.428551 518.847027,279.64311 C519.715215,281.173852 520.889822,283.265866 521.451591,284.235336 C523.034757,286.888622 525.486111,293.062615 525.281832,293.827986 C524.873273,294.95053 523.596526,294.491307 523.034757,293.062615 C521.043032,287.756042 514.199668,275.816254 510.369427,270.968905 C509.858729,270.254558 508.326632,268.315618 507.049885,266.631802 C505.773138,264.947986 504.036763,262.702898 503.168575,261.682403 C502.300387,260.661908 500.97257,258.927067 500.257592,257.855548 C499.542613,256.784028 498.470146,255.355336 497.806237,254.640989 C494.282416,250.814134 484.885558,234.333145 485.549467,233.210601 C486.315515,231.986007 487.387982,232.955477 488.920079,236.170035 Z M239.137306,291.123675 C239.545865,291.123675 239.954424,291.531873 240.056563,292.04212 C240.158703,292.654417 239.903354,292.909541 239.137306,292.909541 C238.371257,292.909541 238.115908,292.654417 238.218048,292.04212 C238.320188,291.531873 238.728747,291.123675 239.137306,291.123675 Z M551.582819,277.346996 C555.25985,281.48 560.366838,289.23576 560.366838,290.715477 C560.366838,291.991095 559.39651,292.246219 558.426183,291.276749 C558.068693,290.919576 557.813344,290.460353 557.813344,290.256254 C557.813344,289.286784 553.676684,283.41894 550.101793,279.234912 C548.007928,276.785724 543.871267,272.499647 540.807075,269.744311 C535.546877,264.845936 534.780829,263.723392 536.466135,263.417244 C537.283253,263.26417 547.13974,272.346572 551.582819,277.346996 Z M306.702754,287.29682 C308.23485,287.29682 308.745549,287.807067 308.030571,288.674488 C307.111313,289.694982 305.528147,289.490883 305.528147,288.317314 C305.528147,287.602968 305.885636,287.29682 306.702754,287.29682 Z M213.142738,280.51053 C213.806646,281.173852 213.398087,282.704594 212.580969,282.704594 C212.27455,282.704594 211.917061,282.34742 211.712781,281.888198 C211.304222,280.816678 212.37669,279.745159 213.142738,280.51053 Z M264.672245,273.520141 C265.336153,273.520141 265.693642,273.877314 265.693642,274.540636 C265.693642,275.203958 265.336153,275.561131 264.672245,275.561131 C264.008336,275.561131 263.650847,275.203958 263.650847,274.540636 C263.650847,273.877314 264.008336,273.520141 264.672245,273.520141 Z M336.731842,273.520141 C337.446821,273.520141 337.70217,273.775265 337.60003,274.387562 C337.446821,275.306007 336.578633,275.76523 336.016864,275.254982 C335.301886,274.489611 335.710445,273.520141 336.731842,273.520141 Z M314.567515,266.988975 C315.282494,267.703322 315.333564,268.111519 314.822865,269.183039 C314.158956,270.611731 313.137559,270.81583 312.167231,269.693286 C310.737275,267.958445 312.984349,265.407208 314.567515,266.988975 Z M227.850863,258.212721 C228.361561,258.212721 229.07654,258.518869 229.382959,258.927067 C230.251147,259.947562 229.536169,261.274205 228.106212,261.274205 C227.084814,261.274205 226.880535,261.019081 226.880535,259.743463 C226.880535,258.569894 227.135884,258.212721 227.850863,258.212721 Z M194.553302,254.743039 C195.676839,254.845088 195.983259,255.151237 195.983259,256.171731 C195.983259,257.192226 195.676839,257.498375 194.553302,257.600424 C193.634044,257.702473 193.072276,257.498375 192.867996,256.988127 C192.306228,255.559435 193.072276,254.53894 194.553302,254.743039 Z M210.282825,255.661484 C210.282825,256.069682 209.874266,256.47788 209.363567,256.579929 C208.648588,256.733004 208.444309,256.528905 208.597519,255.814558 C208.801798,254.743039 210.282825,254.53894 210.282825,255.661484 Z M302.515024,244.793216 C303.178933,245.456537 302.770374,246.987279 301.953256,246.987279 C301.646836,246.987279 301.289347,246.630106 301.085068,246.170883 C300.676509,245.099364 301.748976,244.027845 302.515024,244.793216 Z M251.649426,244.436042 C252.415474,244.436042 252.875103,245.405512 252.568684,246.374982 C252.262264,247.242403 250.934447,247.140353 250.576958,246.221908 C250.219469,245.303463 250.730168,244.436042 251.649426,244.436042 Z M86.7447898,95.494841 C87.510838,96.7704594 87.919397,108.863322 87.4086982,118.404947 C86.64265,134.732862 85.825532,141.519152 82.8124092,157.183746 C79.1864479,175.960848 78.9821683,184.992226 81.7910116,199.279152 C83.6805971,208.769753 88.9918644,224.842544 93.5370836,234.741343 C95.5288088,239.078445 94.1499221,241.425583 92.0560571,237.241555 C90.7793101,234.792367 88.2258162,228.210177 85.1616236,219.689046 C83.323108,214.535548 81.3824526,207.34106 78.8289587,196.217668 C78.5736093,195.095124 78.0629105,191.166219 77.7054214,187.441413 C77.041513,180.655124 77.5011419,171.623746 78.8289587,166.113074 C79.6460768,162.745442 82.2506405,148.101343 83.1188285,142.386572 C84.6509248,131.977527 85.4680428,118.966219 85.3148332,106.975406 C85.2126934,98.5563251 85.3659031,95.1886926 85.7744621,95.0866431 C86.0808814,94.9845936 86.4894404,95.1376678 86.7447898,95.494841 Z M226.727325,232.292155 C228.055142,232.547279 228.208352,234.231095 226.931605,234.231095 C226.165557,234.231095 225.859137,233.924947 225.859137,233.159576 C225.859137,232.44523 226.114487,232.190106 226.727325,232.292155 Z M206.656863,229.281696 C207.116492,229.485795 207.473981,229.945018 207.473981,230.40424 C207.473981,231.271661 205.686536,231.47576 205.124767,230.608339 C204.665138,229.842968 205.737605,228.924523 206.656863,229.281696 Z M240.873681,226.577385 C241.946149,226.577385 242.712197,227.393781 242.712197,228.618375 C242.712197,229.281696 241.026891,230.047067 240.311913,229.791943 C239.954424,229.638869 239.648004,228.873498 239.648004,228.057102 C239.648004,226.832509 239.852284,226.577385 240.873681,226.577385 Z M266.66397,223.515901 C267.174669,223.515901 267.736437,223.873074 267.940717,224.281272 C268.349276,225.454841 267.736437,226.577385 266.66397,226.577385 C266.102201,226.577385 265.540433,226.220212 265.387223,225.812014 C264.927594,224.638445 265.540433,223.515901 266.66397,223.515901 Z M180.917645,221.372862 C180.917645,222.291307 180.611225,223.005654 180.100527,223.209753 C179.028059,223.617951 179.079129,223.617951 178.313081,222.699505 C177.495963,221.679011 178.262011,220.250318 179.845177,220.046219 C180.713365,219.893145 180.917645,220.148269 180.917645,221.372862 Z M300.829718,221.066714 C301.289347,221.168763 301.697906,221.576961 301.697906,221.985159 C301.697906,222.393357 301.289347,222.801555 300.829718,222.903604 C300.16581,223.005654 299.91046,222.75053 299.91046,221.985159 C299.91046,221.219788 300.16581,220.964664 300.829718,221.066714 Z M201.345596,212.035336 C202.264854,212.035336 202.673413,212.341484 202.775553,213.208905 C202.928762,214.178375 202.724483,214.331449 201.345596,214.331449 C199.966709,214.331449 199.76243,214.178375 199.915639,213.208905 C200.017779,212.341484 200.426338,212.035336 201.345596,212.035336 Z M218.709354,211.269965 C219.373263,211.269965 219.730752,211.627138 219.730752,212.290459 C219.730752,213.259929 218.709354,213.668127 218.045446,212.953781 C217.330468,212.290459 217.739027,211.269965 218.709354,211.269965 Z M253.487941,211.269965 C254.20292,211.269965 254.458269,211.525088 254.356129,212.137385 C254.10078,213.464028 252.415474,213.617102 252.415474,212.341484 C252.415474,211.576113 252.721893,211.269965 253.487941,211.269965 Z M407.667903,45.0824028 C407.667903,53.1953357 410.119257,63.6043816 414.000568,72.0744876 C414.715546,73.6562544 415.328385,75.1359717 415.328385,75.3400707 C415.328385,75.4931449 417.32011,79.3710247 419.771464,83.9122261 C426.716967,96.8214841 433.151772,109.781767 433.764611,112.026855 C434.01996,113.149399 434.837078,115.598587 435.552056,117.486502 C438.20769,124.57894 441.425092,140.192509 443.365748,155.908127 C446.838499,183.257385 447.962037,190.043675 451.281579,202.850883 C452.302976,206.779788 453.017955,210.24947 452.864745,210.606643 C452.558326,211.474064 451.587998,211.474064 451.383718,210.657668 C451.281579,210.300495 450.5666,208.157456 449.902692,205.912367 C446.58315,195.401272 445.051054,187.033216 441.884721,162.031095 C439.586577,143.815265 437.696991,132.385724 436.062755,127.079152 C435.654196,125.803534 434.734938,122.486926 433.96889,119.680565 C433.202842,116.874205 432.079305,113.455548 431.466466,112.026855 C430.036509,108.608198 424.112404,96.8214841 420.946071,91.1067138 C414.102707,78.7587279 408.74037,66.3597173 406.952925,58.5529329 C405.829387,53.8076325 404.910129,44.4190813 405.318688,42.2250177 C405.574038,40.7963251 405.931527,40.3371025 406.646505,40.3371025 C407.565763,40.3371025 407.667903,40.6942756 407.667903,45.0824028 Z M184.390396,204.738799 C184.850025,204.840848 185.258584,205.351095 185.258584,205.912367 C185.258584,206.47364 184.850025,206.983887 184.390396,207.085936 C183.675418,207.239011 183.471139,206.932862 183.471139,205.912367 C183.471139,204.891873 183.675418,204.585724 184.390396,204.738799 Z M298.633713,202.085512 C299.552971,202.085512 299.91046,202.340636 299.91046,203.106007 C299.91046,203.871378 299.552971,204.126502 298.633713,204.126502 C297.714456,204.126502 297.356966,203.871378 297.356966,203.106007 C297.356966,202.340636 297.714456,202.085512 298.633713,202.085512 Z M230.659706,197.697385 C230.302217,198.564806 228.667981,198.819929 228.208352,198.054558 C227.799793,197.391237 228.361561,196.115618 229.178679,195.758445 C230.097937,195.401272 231.068265,196.625866 230.659706,197.697385 Z M197.821774,195.452297 C198.587823,195.452297 198.843172,195.70742 198.689962,196.574841 C198.536753,197.697385 197.719635,198.258657 197.106796,197.697385 C196.289678,196.880989 196.749307,195.452297 197.821774,195.452297 Z M259.258838,191.370318 C260.790934,191.370318 261.301633,192.03364 260.842004,193.411307 C260.637724,194.074629 260.075956,194.431802 259.258838,194.431802 C258.23744,194.431802 258.03316,194.176678 258.03316,192.90106 C258.03316,191.625442 258.23744,191.370318 259.258838,191.370318 Z M162.736768,190.655972 C164.013515,191.166219 163.604956,193.615406 162.277139,193.819505 C161.664301,193.921555 161.051462,193.819505 160.847183,193.615406 C159.672576,192.441837 161.204672,190.0947 162.736768,190.655972 Z M184.543606,189.176254 C185.207514,189.839576 184.798955,191.370318 183.981837,191.370318 C183.675418,191.370318 183.317929,191.013145 183.113649,190.553922 C182.70509,189.482403 183.777558,188.410883 184.543606,189.176254 Z M51.2512246,128.609894 C52.4258318,128.609894 52.4258318,129.018092 51.506574,134.987986 C49.9744777,144.580636 49.5148488,151.162827 49.821268,159.632933 C50.1276873,169.123534 51.098015,175.960848 53.19188,184.430954 C54.2132775,188.461908 54.4686269,190.196749 54.0600679,190.451873 C53.3450896,190.96212 52.8343908,190.96212 52.5790414,190.502898 C52.0172728,189.533428 49.5659186,178.920283 48.5445211,172.848339 C47.0634946,164.174134 46.9613549,149.274912 48.3402416,140.345583 C49.9234078,129.732438 50.229827,128.609894 51.2512246,128.609894 Z M247.104207,180.144876 C247.972395,180.144876 248.023464,181.777668 247.206346,182.594064 C246.389228,183.410459 245.82746,183.359435 245.46997,182.440989 C245.112481,181.522544 246.082809,180.144876 247.104207,180.144876 Z M293.220306,179.328481 C293.577796,179.736678 293.731005,180.348975 293.526726,180.655124 C293.118167,181.318445 291.89249,181.318445 291.432861,180.604099 C291.279651,180.297951 291.432861,179.736678 291.84142,179.328481 C292.505328,178.665159 292.658538,178.665159 293.220306,179.328481 Z M227.646583,177.59364 C227.646583,178.001837 227.238024,178.410035 226.727325,178.512085 C226.012347,178.665159 225.808067,178.46106 225.961277,177.746714 C226.165557,176.675194 227.646583,176.471095 227.646583,177.59364 Z M471.70953,116.108834 C475.488701,123.813569 479.574291,136.059505 482.434204,148.101343 C484.37486,156.214276 488.2051,168.205088 490.452175,172.950389 C491.524642,175.297527 492.290691,177.389541 492.137481,177.644664 C491.422503,178.818233 490.350035,177.797739 488.715799,174.430106 C486.570864,169.939929 482.434204,157.949117 481.719226,154.122261 C481.412807,152.591519 480.646758,149.479011 479.98285,147.233922 C479.318942,144.988834 477.582566,139.223039 476.203679,134.375689 C473.445906,125.191237 469.666735,116.057809 466.960031,112.128905 C465.121516,109.475618 465.019376,108.965371 466.245053,108.506148 C467.41966,108.046926 468.389988,109.322544 471.70953,116.108834 Z M210.793523,173.511661 C212.27455,173.511661 212.989528,174.787279 212.22348,176.011873 C211.661711,176.930318 210.436034,177.287491 209.874266,176.777244 C209.669986,176.573145 209.516776,175.756749 209.516776,174.940353 C209.516776,173.766784 209.721056,173.511661 210.793523,173.511661 Z M305.272798,174.021908 C305.681357,174.021908 306.038846,174.481131 306.038846,174.991378 C306.038846,176.215972 305.426007,176.62417 304.557819,176.062898 C303.689631,175.55265 304.20033,174.021908 305.272798,174.021908 Z M162.532489,173.001413 C163.196397,173.001413 163.553886,173.358587 163.553886,174.021908 C163.553886,174.68523 163.196397,175.042403 162.532489,175.042403 C161.86858,175.042403 161.511091,174.68523 161.511091,174.021908 C161.511091,173.358587 161.86858,173.001413 162.532489,173.001413 Z M179.436618,168.919435 C180.713365,168.919435 180.560156,170.603251 179.232339,170.858375 C178.6195,170.960424 178.364151,170.7053 178.364151,169.990954 C178.364151,169.225583 178.67057,168.919435 179.436618,168.919435 Z M259.871676,165.857951 C261.556982,165.857951 261.403772,167.541767 259.667397,167.79689 C258.799209,167.949965 258.543859,167.694841 258.543859,166.92947 C258.543859,166.113074 258.850279,165.857951 259.871676,165.857951 Z M235.613484,164.327208 C236.328462,164.327208 236.583812,164.582332 236.481672,165.194629 C236.328462,166.113074 235.460274,166.572297 234.898506,166.062049 C234.183527,165.296678 234.592086,164.327208 235.613484,164.327208 Z M289.083646,162.898516 C289.543275,163.000565 289.951834,163.408763 289.951834,163.816961 C289.951834,164.225159 289.543275,164.633357 289.083646,164.735406 C288.419738,164.837456 288.164388,164.582332 288.164388,163.816961 C288.164388,163.05159 288.419738,162.796466 289.083646,162.898516 Z M308.4902,160.806502 C308.64341,161.673922 307.417732,162.490318 306.855964,161.929046 C306.702754,161.724947 306.549545,161.163675 306.549545,160.653428 C306.549545,159.428834 308.23485,159.581908 308.4902,160.806502 Z M297.152687,155.142756 C298.174085,155.142756 298.378364,155.39788 298.378364,156.673498 C298.378364,157.949117 298.174085,158.20424 297.152687,158.20424 C296.335569,158.20424 295.7738,157.847067 295.569521,157.183746 C295.109892,155.806078 295.620591,155.142756 297.152687,155.142756 Z M181.836903,155.499929 C181.632623,156.724523 180.100527,156.928622 179.691968,155.857102 C179.487688,155.346855 179.589828,154.734558 179.845177,154.479435 C180.560156,153.765088 182.041182,154.479435 181.836903,155.499929 Z M168.763014,153.101767 C169.835481,153.101767 170.039761,154.581484 169.069433,155.550954 C168.303385,156.316325 166.771289,156.36735 166.36273,155.601979 C165.903101,154.887633 167.588407,153.101767 168.763014,153.101767 Z M232.498221,153.35689 C233.519619,153.35689 233.774968,153.612014 233.774968,154.632509 C233.774968,155.653004 233.468549,155.959152 232.345012,156.061201 C231.017195,156.214276 230.915055,156.112226 231.068265,154.785583 C231.170405,153.663039 231.476824,153.35689 232.498221,153.35689 Z M214.113065,152.336396 C214.521624,152.336396 214.930183,152.744594 215.032323,153.254841 C215.134463,153.867138 214.879114,154.122261 214.113065,154.122261 C213.347017,154.122261 213.091668,153.867138 213.193808,153.254841 C213.295947,152.744594 213.704506,152.336396 214.113065,152.336396 Z M175.248888,150.040283 C175.912797,150.040283 176.270286,150.499505 176.474565,151.724099 C176.780985,153.663039 176.576705,154.122261 175.351028,154.122261 C174.68712,154.122261 174.32963,153.612014 174.074281,152.540495 C173.716792,150.65258 174.023211,150.040283 175.248888,150.040283 Z M172.746464,150.703604 C172.746464,152.48947 171.163298,153.765088 170.44832,152.540495 C170.24404,152.285371 170.24404,151.468975 170.39725,150.754629 C170.856879,149.121837 172.746464,149.019788 172.746464,150.703604 Z M184.032907,151.060777 C185.258584,151.060777 185.105375,152.234346 183.828628,152.48947 C183.317929,152.591519 182.96044,152.336396 182.96044,151.877173 C182.96044,151.366926 183.420069,151.060777 184.032907,151.060777 Z M251.700496,150.040283 C252.109055,150.040283 252.415474,150.499505 252.415474,151.060777 C252.415474,152.132297 251.189797,152.48947 250.628028,151.571025 C250.219469,150.856678 250.781238,150.040283 251.700496,150.040283 Z M182.347601,150.55053 C182.143322,151.622049 180.355876,151.775124 179.028059,150.805654 C177.802382,149.938233 177.495963,148.764664 178.313081,148.254417 C179.130199,147.795194 182.500811,149.68311 182.347601,150.55053 Z M193.736184,148.356466 C194.093673,148.71364 194.195813,149.325936 194.042603,149.734134 C193.685114,150.65258 192.357297,150.805654 191.846599,149.989258 C191.3359,149.121837 193.021206,147.64212 193.736184,148.356466 Z M173.001814,145.958304 C173.410373,145.958304 173.767862,146.213428 173.767862,146.468551 C173.767862,146.7747 174.32963,146.978799 174.993539,146.978799 C175.708517,146.978799 176.423495,146.7747 176.576705,146.468551 C177.036334,145.70318 178.364151,145.856254 178.364151,146.723675 C178.364151,148.305442 174.125351,149.172862 172.848604,147.897244 C171.980416,147.029823 172.082556,145.958304 173.001814,145.958304 Z M188.986685,144.73371 C189.242035,146.366502 185.769283,147.182898 185.156445,145.652155 C184.747886,144.580636 185.462864,144.019364 187.301379,143.815265 C188.527057,143.713216 188.884546,143.86629 188.986685,144.73371 Z M181.581553,143.509117 C182.80723,143.611166 183.266859,143.917314 183.368999,144.83576 C183.522209,145.80523 183.317929,145.958304 181.734763,145.958304 C180.100527,145.958304 179.896247,145.80523 179.896247,144.631661 C179.896247,143.458092 180.049457,143.356042 181.581553,143.509117 Z M168.405525,143.407067 C169.324782,143.407067 169.682272,143.662191 169.682272,144.427562 C169.682272,145.192933 169.324782,145.448057 168.405525,145.448057 C167.486267,145.448057 167.128778,145.192933 167.128778,144.427562 C167.128778,143.662191 167.486267,143.407067 168.405525,143.407067 Z M172.746464,139.937385 C172.950744,141.059929 173.155023,141.213004 173.767862,140.85583 C175.759587,139.580212 179.589828,141.468127 179.283409,143.611166 C179.079129,145.039859 177.547033,145.294982 177.087404,143.968339 C176.576705,142.233498 173.257163,142.692721 173.257163,144.478587 C173.257163,145.090883 172.899674,145.448057 172.235765,145.448057 C171.571857,145.448057 171.214368,145.090883 171.214368,144.427562 C171.214368,143.86629 171.571857,143.407067 171.980416,143.407067 C172.388975,143.407067 172.746464,143.049894 172.746464,142.641696 C172.746464,142.233498 172.388975,141.876325 171.980416,141.876325 C171.163298,141.876325 170.19297,140.345583 170.19297,139.069965 C170.19297,137.590247 172.440045,138.355618 172.746464,139.937385 Z M193.991534,142.89682 C194.859721,142.89682 195.217211,143.202968 195.217211,143.86629 C195.217211,145.346007 192.867996,146.060353 192.357297,144.682686 C191.948738,143.611166 192.561577,142.89682 193.991534,142.89682 Z M307.366663,142.386572 C308.132711,142.386572 308.23485,142.845795 307.775222,144.121413 C307.366663,145.141908 306.753824,145.141908 306.345265,144.121413 C305.936706,143.100919 306.396335,142.386572 307.366663,142.386572 Z M199.302801,141.876325 C199.966709,141.876325 200.324198,142.233498 200.324198,142.89682 C200.324198,143.560141 199.966709,143.917314 199.302801,143.917314 C198.638892,143.917314 198.281403,143.560141 198.281403,142.89682 C198.281403,142.233498 198.638892,141.876325 199.302801,141.876325 Z M212.478829,142.743746 C212.27455,143.917314 210.640314,144.223463 210.231755,143.151943 C210.027475,142.692721 210.129615,142.080424 210.436034,141.774276 C211.202082,141.008905 212.683109,141.723251 212.478829,142.743746 Z M167.026638,142.029399 C167.128778,142.641696 166.873428,142.89682 166.15845,142.89682 C165.392402,142.89682 165.085983,142.590671 165.085983,141.8253 C165.085983,140.549682 166.771289,140.702756 167.026638,142.029399 Z M287.909039,139.835336 C288.317598,139.835336 288.675087,140.294558 288.675087,140.85583 C288.675087,141.417102 288.317598,141.876325 287.909039,141.876325 C287.50048,141.876325 287.142991,141.417102 287.142991,140.85583 C287.142991,140.294558 287.50048,139.835336 287.909039,139.835336 Z M180.406946,138.559717 C180.815505,138.559717 181.224064,139.069965 181.326204,139.733286 C181.479413,140.600707 181.224064,140.85583 180.406946,140.85583 C179.589828,140.85583 179.334479,140.600707 179.487688,139.733286 C179.589828,139.069965 179.998387,138.559717 180.406946,138.559717 Z M175.044609,136.518728 C175.810657,136.518728 176.117076,136.926926 176.219216,138.202544 C176.372426,139.580212 176.219216,139.835336 175.299958,139.835336 C174.73819,139.835336 174.125351,139.529187 173.972141,139.120989 C173.461443,137.794346 174.023211,136.518728 175.044609,136.518728 Z M191.029481,137.335124 C190.825201,139.01894 188.067428,139.478163 188.067428,137.845371 C188.067428,137.233074 188.220637,136.773852 188.475987,136.773852 C188.680266,136.773852 189.395244,136.620777 190.008083,136.416678 C191.08055,136.161555 191.18269,136.263604 191.029481,137.335124 Z M325.24112,135.753357 C326.262517,135.753357 326.466797,136.008481 326.466797,137.284099 C326.466797,138.559717 326.262517,138.814841 325.24112,138.814841 C324.577211,138.814841 323.913303,138.457668 323.709024,138.04947 C323.249395,136.773852 323.913303,135.753357 325.24112,135.753357 Z M249.453421,135.855406 C250.321609,135.957456 250.628028,136.365654 250.628028,137.284099 C250.628028,138.202544 250.321609,138.610742 249.453421,138.712792 C248.789513,138.814841 248.176674,138.559717 248.023464,138.100495 C247.512766,136.773852 248.227744,135.651307 249.453421,135.855406 Z M183.266859,133.20212 C184.543606,133.20212 184.594676,134.477739 183.471139,136.467703 C182.398671,138.253569 181.275134,138.814841 180.662295,137.794346 C180.202666,137.08 182.347601,133.20212 183.266859,133.20212 Z M168.609804,132.691873 C169.477992,132.691873 170.19297,133.967491 170.19297,135.651307 C170.19297,136.569753 168.303385,136.416678 167.945896,135.447208 C167.333057,133.865442 167.639476,132.691873 168.609804,132.691873 Z M195.52363,133.712367 C196.545027,133.712367 196.902517,134.681837 196.238608,135.498233 C195.47256,136.416678 195.115071,136.467703 194.297953,135.651307 C193.634044,134.987986 194.400093,133.712367 195.52363,133.712367 Z M175.044609,128.609894 C176.321356,128.609894 176.372426,128.711943 176.219216,131.518304 C176.117076,133.712367 175.861727,134.528763 175.299958,134.630813 C174.840329,134.681837 174.32963,134.630813 174.125351,134.426714 C173.921071,134.222615 173.767862,132.844947 173.767862,131.314205 L173.768735,130.863403 C173.778834,128.744432 173.895537,128.609894 175.044609,128.609894 Z M201.345596,130.650883 C202.009504,130.650883 202.366993,131.008057 202.366993,131.671378 C202.366993,132.3347 202.009504,132.691873 201.345596,132.691873 C200.681688,132.691873 200.324198,132.3347 200.324198,131.671378 C200.324198,131.008057 200.681688,130.650883 201.345596,130.650883 Z M185.769283,128.609894 C186.94389,128.609894 187.14817,129.528339 186.279982,131.161131 C185.411794,132.793922 184.135047,133.20212 183.675418,131.926502 C183.266859,130.957032 184.798955,128.609894 185.769283,128.609894 Z M344.239114,129.783463 C343.932695,130.599859 342.502739,130.854982 342.04311,130.140636 C341.83883,129.783463 341.8899,129.32424 342.196319,129.018092 C342.911298,128.303746 344.494464,128.916042 344.239114,129.783463 Z M288.930437,127.334276 C289.645415,127.334276 290.002904,127.742473 290.105044,128.762968 C290.258253,129.936537 290.105044,130.140636 288.930437,130.140636 C287.755829,130.140636 287.60262,129.936537 287.755829,128.762968 C287.857969,127.742473 288.215458,127.334276 288.930437,127.334276 Z M167.639476,128.35477 C167.945896,128.507845 168.048035,128.916042 167.894826,129.171166 C167.486267,129.783463 166.26059,129.783463 165.852031,129.120141 C165.443472,128.507845 166.873428,127.895548 167.639476,128.35477 Z M320.338412,127.844523 C320.338412,128.711943 319.163804,129.120141 318.244547,128.558869 C317.631708,128.201696 317.682778,127.997597 318.397756,127.283251 C319.265944,126.41583 320.338412,126.670954 320.338412,127.844523 Z M224.480251,127.895548 C224.122761,128.865018 222.846015,128.813993 222.437456,127.793498 C222.284246,127.3853 222.386386,126.773004 222.692805,126.466855 C223.458853,125.701484 224.88881,126.875053 224.480251,127.895548 Z M193.327625,126.670954 C193.940464,126.773004 194.451162,127.181201 194.451162,127.589399 C194.451162,127.997597 193.940464,128.405795 193.327625,128.507845 C192.408367,128.660919 192.153018,128.405795 192.153018,127.589399 C192.153018,126.773004 192.408367,126.51788 193.327625,126.670954 Z M375.902439,124.885088 C377.179186,125.650459 377.025976,128.303746 375.749229,128.507845 C375.18746,128.558869 374.421412,128.35477 374.063923,127.997597 C372.582897,126.51788 374.217133,123.813569 375.902439,124.885088 Z M187.607799,124.527915 C188.220637,124.527915 188.578126,124.885088 188.578126,125.54841 C188.578126,126.51788 187.14817,126.977102 186.382122,126.262756 C185.820353,125.701484 186.637471,124.527915 187.607799,124.527915 Z M180.151597,122.946148 C179.743038,123.660495 179.028059,123.660495 178.6195,122.997173 C178.466291,122.691025 178.67057,122.333852 179.130199,122.180777 C180.100527,121.77258 180.662295,122.180777 180.151597,122.946148 Z M198.843172,121.976678 C200.068849,121.976678 199.915639,123.150247 198.638892,123.405371 C198.128194,123.50742 197.770704,123.252297 197.770704,122.793074 C197.770704,122.282827 198.230333,121.976678 198.843172,121.976678 Z M173.308233,120.292862 C173.921071,120.905159 173.512512,121.976678 172.746464,121.976678 C172.491115,121.976678 172.133626,121.721555 171.929346,121.415406 C171.418647,120.547986 172.593255,119.578516 173.308233,120.292862 Z M190.671991,119.782615 C191.28483,120.394912 190.876271,121.466431 190.110223,121.466431 C189.854873,121.466431 189.497384,121.211307 189.293105,120.905159 C188.782406,120.037739 189.957013,119.068269 190.671991,119.782615 Z M182.194392,118.047774 C182.398671,118.506996 182.449741,119.272367 182.245462,119.680565 C181.939042,120.496961 180.662295,120.70106 180.202666,120.037739 C180.100527,119.83364 180.406946,119.068269 180.917645,118.404947 C181.785833,117.282403 181.887972,117.231378 182.194392,118.047774 Z M237.554139,118.455972 C237.043441,119.476466 236.226323,119.680565 235.153855,118.966219 C234.183527,118.404947 234.592086,116.670106 235.715624,116.466007 C237.14558,116.159859 238.218048,117.282403 237.554139,118.455972 Z M175.708517,117.486502 C176.168146,117.588551 176.576705,117.996749 176.576705,118.404947 C176.576705,118.813145 176.168146,119.221343 175.708517,119.323392 C175.044609,119.425442 174.789259,119.170318 174.789259,118.404947 C174.789259,117.639576 175.044609,117.384452 175.708517,117.486502 Z M167.639476,117.843675 C167.639476,118.558021 167.333057,118.915194 166.618079,118.915194 C166.05631,118.915194 165.596681,118.558021 165.596681,118.149823 C165.596681,117.741625 165.698821,117.384452 165.800961,117.384452 C165.903101,117.384452 166.36273,117.231378 166.822358,117.078304 C167.435197,116.874205 167.639476,117.078304 167.639476,117.843675 Z M298.991203,116.772155 C299.501901,117.282403 299.399762,117.588551 298.735853,118.251873 C297.969805,119.017244 297.867665,119.017244 297.561246,118.200848 C297.101617,116.976254 298.174085,115.95576 298.991203,116.772155 Z M187.709939,113.710671 C188.016358,114.476042 188.578126,115.292438 188.935616,115.496537 C189.854873,116.057809 189.752734,117.8947 188.833476,117.8947 C188.424917,117.8947 187.863148,117.435477 187.556729,116.874205 C187.25031,116.312933 187.14817,115.85371 187.301379,115.85371 C187.454589,115.85371 187.0971,115.394488 186.535331,114.833216 C185.973563,114.271943 185.513934,113.455548 185.513934,113.04735 C185.513934,111.771731 187.04603,112.179929 187.709939,113.710671 Z M198.638892,115.95576 C199.915639,116.210883 200.068849,117.384452 198.843172,117.384452 C198.230333,117.384452 197.770704,117.078304 197.770704,116.568057 C197.770704,116.108834 198.128194,115.85371 198.638892,115.95576 Z M182.80723,113.302473 C183.317929,113.302473 183.471139,113.761696 183.368999,114.935265 C183.215789,116.466007 182.296531,117.384452 181.785833,116.517032 C181.275134,115.751661 182.041182,113.302473 182.80723,113.302473 Z M172.644325,115.139364 C172.542185,115.700636 172.082556,116.159859 171.520787,116.261908 C170.856879,116.414982 170.652599,116.210883 170.805809,115.547562 C170.907949,114.98629 171.367578,114.527067 171.929346,114.425018 C172.593255,114.271943 172.797534,114.476042 172.644325,115.139364 Z M331.726994,113.91477 C332.441973,114.01682 332.850532,114.425018 332.850532,115.088339 C332.850532,115.751661 332.441973,116.159859 331.726994,116.261908 C330.756667,116.414982 330.552387,116.210883 330.552387,115.088339 C330.552387,113.965795 330.756667,113.761696 331.726994,113.91477 Z M358.64082,114.782191 C358.64082,115.547562 358.334401,115.85371 357.568353,115.85371 C356.853374,115.85371 356.598025,115.598587 356.700165,114.98629 C356.955514,113.659647 358.64082,113.506572 358.64082,114.782191 Z M195.5747,114.425018 C196.851447,114.680141 197.004656,115.85371 195.778979,115.85371 C195.166141,115.85371 194.706512,115.547562 194.706512,115.037314 C194.706512,114.578092 195.064001,114.322968 195.5747,114.425018 Z M256.756414,114.833216 C256.756414,115.241413 256.194645,115.649611 255.581806,115.751661 C254.611479,115.904735 254.407199,115.751661 254.560409,114.98629 C254.764688,113.863746 256.756414,113.710671 256.756414,114.833216 Z M175.095679,112.281979 C175.504238,112.281979 175.810657,112.741201 175.810657,113.302473 C175.810657,114.373993 174.58498,114.731166 174.023211,113.812721 C173.614652,113.098375 174.176421,112.281979 175.095679,112.281979 Z M191.897669,112.281979 C192.306228,112.281979 192.663717,112.741201 192.663717,113.302473 C192.663717,114.322968 192.101948,114.629117 191.489109,113.965795 C190.825201,113.353498 191.13162,112.281979 191.897669,112.281979 Z M179.436618,111.261484 C180.713365,111.261484 180.662295,112.07788 179.436618,112.792226 C178.057732,113.506572 176.832055,113.455548 176.832055,112.588127 C176.832055,111.822756 177.904522,111.261484 179.436618,111.261484 Z M183.675418,107.281555 C185.769283,107.485654 186.075702,108.710247 183.981837,108.710247 C182.500811,108.710247 182.449741,108.761272 183.01151,109.832792 C183.420069,110.547138 183.726488,110.751237 183.879698,110.343039 C184.083977,109.730742 186.024633,109.424594 186.024633,110.03689 C186.024633,112.230954 182.449741,113.149399 181.428344,111.261484 C181.019784,110.445088 181.019784,109.781767 181.530483,108.659223 C182.092252,107.383604 182.449741,107.179505 183.675418,107.281555 Z M314.720725,110.240989 C315.384633,110.240989 315.742123,110.598163 315.742123,111.261484 C315.742123,111.924806 315.384633,112.281979 314.720725,112.281979 C314.056817,112.281979 313.699327,111.924806 313.699327,111.261484 C313.699327,110.598163 314.056817,110.240989 314.720725,110.240989 Z M285.559825,108.302049 C286.632292,108.506148 286.632292,110.445088 285.508755,110.649187 C285.049126,110.751237 284.538427,110.598163 284.385217,110.292014 C283.874519,109.475618 284.640567,108.148975 285.559825,108.302049 Z M192.663717,109.118445 C192.663717,109.934841 192.204088,110.087915 189.599524,110.13894 C187.812078,110.189965 186.535331,109.985866 186.535331,109.730742 C186.535331,108.863322 189.139895,108.097951 189.854873,108.710247 C190.314502,109.118445 190.620922,109.118445 190.876271,108.710247 C191.38697,107.842827 192.663717,108.148975 192.663717,109.118445 Z M166.36273,107.689753 C166.771289,107.689753 167.128778,108.148975 167.128778,108.710247 C167.128778,109.271519 166.771289,109.730742 166.36273,109.730742 C165.954171,109.730742 165.596681,109.271519 165.596681,108.710247 C165.596681,108.148975 165.954171,107.689753 166.36273,107.689753 Z M171.469717,107.33258 C171.776137,107.434629 172.031486,107.893852 172.133626,108.353074 C172.337905,109.322544 170.49939,109.577668 169.886551,108.659223 C169.529062,108.046926 170.652599,107.077456 171.469717,107.33258 Z M179.845177,107.638728 C180.764435,108.251025 180.100527,109.220495 178.82378,109.220495 C178.108801,109.220495 177.853452,108.914346 177.955592,108.353074 C178.159871,107.33258 178.87485,107.026431 179.845177,107.638728 Z M174.840329,107.536678 C175.453168,108.148975 175.044609,109.220495 174.278561,109.220495 C174.023211,109.220495 173.665722,108.965371 173.461443,108.659223 C172.950744,107.791802 174.125351,106.822332 174.840329,107.536678 Z M210.589244,107.179505 C211.865991,107.179505 211.712781,108.863322 210.384964,109.118445 C209.772126,109.220495 209.516776,108.965371 209.516776,108.251025 C209.516776,107.485654 209.823196,107.179505 210.589244,107.179505 Z M189.344175,105.342615 C190.263432,105.648763 190.212363,107.23053 189.293105,107.536678 C188.986685,107.638728 188.475987,107.434629 188.169567,107.026431 C187.403519,106.159011 188.220637,104.883392 189.344175,105.342615 Z M180.713365,103.607774 C181.632623,103.607774 182.90937,104.985442 182.96044,106.056961 C182.96044,106.975406 181.734763,106.822332 180.764435,105.750813 C179.640898,104.526219 179.640898,103.607774 180.713365,103.607774 Z M186.279982,105.597739 C185.871423,106.975406 184.492536,106.975406 184.492536,105.648763 C184.492536,105.087491 184.850025,104.475194 185.258584,104.271095 C186.331052,103.862898 186.688541,104.32212 186.279982,105.597739 Z M375.902439,104.781343 C376.004579,105.39364 375.749229,105.648763 375.034251,105.648763 C374.268203,105.648763 373.961783,105.342615 373.961783,104.577244 C373.961783,103.301625 375.647089,103.4547 375.902439,104.781343 Z M174.278561,102.587279 C175.299958,102.587279 177.342753,103.811873 177.189544,104.32212 C176.934194,105.087491 175.708517,105.240565 174.68712,104.577244 C173.716792,104.015972 173.410373,102.587279 174.278561,102.587279 Z M345.362652,101.311661 C346.486189,101.311661 346.332979,103.301625 345.209442,103.505724 C344.443394,103.658799 344.290184,103.4547 344.443394,102.48523 C344.545534,101.872933 344.954093,101.311661 345.362652,101.311661 Z M304.35354,100.903463 C305.323867,101.260636 304.966378,102.791378 303.842841,102.995477 C303.383212,103.097527 302.821443,102.791378 302.668234,102.332155 C302.259675,101.362686 303.281072,100.495265 304.35354,100.903463 Z M226.063417,98.5053004 C226.880535,98.5053004 227.442304,98.8624735 227.646583,99.5257951 C228.106212,100.903463 227.595513,101.566784 226.063417,101.566784 C225.042019,101.566784 224.83774,101.311661 224.83774,100.036042 C224.83774,98.760424 225.042019,98.5053004 226.063417,98.5053004 Z M363.747808,98.5053004 C364.309576,98.5053004 364.769205,98.8624735 364.769205,99.2706714 C364.769205,99.6788693 364.309576,100.036042 363.747808,100.036042 C363.186039,100.036042 362.72641,99.6788693 362.72641,99.2706714 C362.72641,98.8624735 363.186039,98.5053004 363.747808,98.5053004 Z M321.10446,95.1886926 C322.636556,95.1886926 322.483346,97.1786572 320.95125,97.3827562 C319.929853,97.5358304 319.776643,97.3827562 319.929853,96.3622615 C320.031992,95.5968905 320.440551,95.1886926 321.10446,95.1886926 Z M238.524467,96.3112367 C238.320188,97.4848057 236.685951,97.7909541 236.277392,96.7194346 C236.073113,96.260212 236.175253,95.6479152 236.481672,95.3417668 C237.24772,94.5763958 238.728747,95.290742 238.524467,96.3112367 Z M290.717882,93.1477032 C292.301049,93.1477032 293.169236,94.5763958 292.301049,95.6479152 C291.89249,96.1071378 291.228581,96.464311 290.717882,96.464311 C290.207184,96.464311 289.543275,96.1071378 289.134716,95.6479152 C288.266528,94.5763958 289.134716,93.1477032 290.717882,93.1477032 Z M163.043187,90.8005654 C163.043187,91.5659364 162.736768,91.8720848 161.97072,91.8720848 C161.255742,91.8720848 161.000392,91.6169611 161.102532,91.0046643 C161.357881,89.6780212 163.043187,89.524947 163.043187,90.8005654 Z M200.579548,89.8310954 C201.294526,89.8310954 201.958434,91.055689 201.498806,91.5659364 C200.988107,92.025159 199.915639,91.9231095 199.55815,91.3618375 C199.149591,90.6985159 199.71136,89.8310954 200.579548,89.8310954 Z M354.65737,86.3614134 C355.525557,86.4634629 355.831977,86.8716608 355.831977,87.790106 C355.831977,89.2698233 354.50416,89.7290459 353.533832,88.6065018 C352.614574,87.4839576 353.278483,86.1573145 354.65737,86.3614134 Z M344.239114,87.4329329 C343.932695,88.2493286 342.502739,88.5044523 342.04311,87.790106 C341.83883,87.4329329 341.8899,86.9737102 342.196319,86.6675618 C342.911298,85.9532155 344.494464,86.5655124 344.239114,87.4329329 Z M178.87485,83.9632509 C179.896247,83.9632509 180.151597,84.2183746 180.151597,85.2388693 C180.151597,86.259364 179.845177,86.5655124 178.72164,86.6675618 C177.393823,86.820636 177.291683,86.7185866 177.444893,85.3919435 C177.547033,84.2693993 177.853452,83.9632509 178.87485,83.9632509 Z M249.351281,85.1878445 C249.351281,85.9532155 249.044862,86.259364 248.278814,86.259364 C247.563835,86.259364 247.308486,86.0042403 247.410626,85.3919435 C247.665975,84.0653004 249.351281,83.9122261 249.351281,85.1878445 Z M326.620007,82.2794346 C328.509592,82.5345583 328.305313,85.6980919 326.415727,85.7491166 C326.211448,85.7491166 325.802889,85.3919435 325.445399,84.9837456 C324.526142,83.8612014 325.29219,82.0753357 326.620007,82.2794346 Z M310.584065,83.4019788 C311.401183,83.9122261 310.635135,85.2388693 309.562667,85.2388693 C309.051969,85.2388693 308.59234,84.8816961 308.59234,84.4734982 C308.59234,83.555053 309.818017,82.9427562 310.584065,83.4019788 Z M233.877108,82.789682 C235.204925,83.0448057 235.358135,84.7286219 234.081388,84.7286219 C233.31534,84.7286219 233.00892,84.4224735 233.00892,83.6571025 C233.00892,82.9427562 233.26427,82.6876325 233.877108,82.789682 Z M219.220053,80.3915194 C220.292521,80.3915194 220.4968,80.6466431 220.4968,81.9222615 C220.4968,83.1468551 220.241451,83.5040283 219.322193,83.6060777 C218.658285,83.7081272 218.096516,83.4530035 217.892236,82.9937809 C217.330468,81.5140636 217.892236,80.3915194 219.220053,80.3915194 Z M438.820528,36 C439.382297,36 439.688716,37.3266431 440.199415,41.8678445 C441.220813,51.1033216 444.744634,63.1961837 449.136644,72.4826855 C452.915815,80.5956184 453.630793,83.1978799 452.047627,83.1978799 C451.792277,83.1978799 450.51553,80.9527915 449.238784,78.2484806 C442.14007,63.1961837 438.25876,50.0318021 438.10555,40.6432509 C438.05448,36.8674205 438.20769,36 438.820528,36 Z M363.288179,81.1568905 C364.003157,81.1568905 364.258507,81.4120141 364.156367,82.024311 C364.003157,82.9427562 363.134969,83.4019788 362.573201,82.8917314 C361.858222,82.1263604 362.266781,81.1568905 363.288179,81.1568905 Z M297.101617,73.5031802 C298.174085,73.5031802 298.378364,73.7583039 298.378364,75.0339223 C298.378364,76.3095406 298.174085,76.5646643 297.101617,76.5646643 C296.386639,76.5646643 295.671661,76.2074912 295.518451,75.7992933 C295.007752,74.5236749 295.72273,73.5031802 297.101617,73.5031802 Z M162.12393,73.6052297 C162.992118,73.7072792 163.298537,74.115477 163.298537,75.0339223 C163.298537,75.9523675 162.992118,76.3605654 162.12393,76.4626148 C161.460021,76.5646643 160.847183,76.3095406 160.693973,75.850318 C160.183274,74.5236749 160.898253,73.4011307 162.12393,73.6052297 Z M319.214874,75.1869965 C318.908455,75.9523675 317.478498,76.3095406 317.121009,75.6972438 C316.9678,75.4421201 317.01887,74.9318728 317.274219,74.5746996 C317.784918,73.7072792 319.470224,74.2685512 319.214874,75.1869965 Z M184.032907,72.4826855 C184.747886,72.4826855 185.003235,72.7378092 184.901095,73.350106 C184.645746,74.6767491 182.96044,74.8298233 182.96044,73.5542049 C182.96044,72.7888339 183.266859,72.4826855 184.032907,72.4826855 Z M201.294526,71.1560424 C202.162714,71.7173145 201.958434,73.5031802 201.090247,73.5031802 C200.630618,73.5031802 200.170989,73.1460071 199.966709,72.6867845 C199.60922,71.7683392 200.528478,70.6968198 201.294526,71.1560424 Z M236.532742,68.9109541 C237.962698,68.9109541 238.933026,70.3396466 238.269118,71.3601413 C237.554139,72.5337102 236.379532,72.6867845 235.613484,71.7683392 C234.745296,70.7478445 235.409205,68.9109541 236.532742,68.9109541 Z M344.188045,68.4007067 C345.260512,68.4007067 345.413722,68.6048057 345.260512,69.8293993 C345.107302,71.4111661 343.166647,72.0744876 342.655948,70.7478445 C342.145249,69.4212014 342.809158,68.4007067 344.188045,68.4007067 Z M288.828297,68.9109541 C289.798625,68.9109541 290.207184,69.4212014 289.849694,70.2375972 C289.441135,71.3091166 288.164388,71.1050177 288.164388,69.9314488 C288.164388,69.3701767 288.470808,68.9109541 288.828297,68.9109541 Z M325.751819,67.2271378 C326.824286,67.6353357 326.620007,68.9109541 325.445399,68.9109541 C324.883631,68.9109541 324.424002,68.6048057 324.424002,68.2476325 C324.424002,67.2781625 324.934701,66.8699647 325.751819,67.2271378 Z M218.505075,65.84947 C219.475403,65.84947 219.781822,66.1045936 219.628612,66.7168905 C219.475403,67.6863604 218.147586,68.1966078 217.534747,67.584311 C216.717629,66.7679152 217.228328,65.84947 218.505075,65.84947 Z M251.394076,61.7674912 C251.955845,61.7674912 252.415474,62.1246643 252.415474,62.5328622 C252.415474,62.9410601 251.955845,63.2982332 251.394076,63.2982332 C250.832308,63.2982332 250.372679,62.9410601 250.372679,62.5328622 C250.372679,62.1246643 250.832308,61.7674912 251.394076,61.7674912 Z M237.911629,61.3082686 C238.320188,61.614417 238.626607,62.0736396 238.626607,62.2777385 C238.626607,62.9410601 237.29879,63.2472085 236.583812,62.7879859 C236.022043,62.4308127 236.022043,62.2267138 236.532742,61.5633922 C237.09451,60.9510954 237.40093,60.8490459 237.911629,61.3082686 Z M308.081641,58.7060071 C308.745549,58.7060071 309.103038,59.0631802 309.103038,59.7265018 C309.103038,60.3898233 308.745549,60.7469965 308.081641,60.7469965 C307.417732,60.7469965 307.060243,60.3898233 307.060243,59.7265018 C307.060243,59.0631802 307.417732,58.7060071 308.081641,58.7060071 Z M336.425423,57.6855124 C336.833982,57.6855124 337.191471,58.144735 337.191471,58.7060071 C337.191471,59.2672792 336.833982,59.7265018 336.425423,59.7265018 C336.016864,59.7265018 335.659375,59.2672792 335.659375,58.7060071 C335.659375,58.144735 336.016864,57.6855124 336.425423,57.6855124 Z M352.257085,56.409894 C352.818854,56.409894 353.329553,56.8180919 353.431692,57.3283392 C353.584902,57.9916608 353.278483,58.1957597 352.257085,58.1957597 C351.235688,58.1957597 350.929268,57.9916608 351.082478,57.3283392 C351.184618,56.8180919 351.695317,56.409894 352.257085,56.409894 Z M285.866244,55.1342756 C286.836572,55.9506714 286.836572,56.409894 285.815174,57.379364 C284.793777,58.4508834 283.108471,58.3998587 282.699912,57.379364 C282.036003,55.5424735 284.385217,53.909682 285.866244,55.1342756 Z M321.513019,53.705583 C322.125857,53.8076325 322.636556,54.2158304 322.636556,54.6240283 C322.636556,55.440424 321.308739,55.8996466 320.695901,55.3383746 C319.878783,54.5219788 320.389481,53.5525088 321.513019,53.705583 Z M300.829718,47.5826148 C301.289347,47.6846643 301.697906,48.0928622 301.697906,48.5010601 C301.697906,48.909258 301.289347,49.3174558 300.829718,49.4195053 C300.16581,49.5215548 299.91046,49.2664311 299.91046,48.5010601 C299.91046,47.735689 300.16581,47.4805654 300.829718,47.5826148 Z M341.072782,45.8987986 C340.562083,46.7151943 339.234266,46.5621201 338.876777,45.6436749 C338.723568,45.235477 338.825707,44.6231802 339.183197,44.2660071 C339.898175,43.5516608 341.583481,45.0313781 341.072782,45.8987986 Z M320.79804,44.470106 C320.185202,45.6436749 319.163804,45.6946996 318.295616,44.6742049 C317.529568,43.7557597 317.938127,42.4801413 319.112734,42.0209187 C320.338412,41.5616961 321.461949,43.2455124 320.79804,44.470106 Z M348.784334,36.8674205 C350.11215,37.1225442 350.26536,38.8063604 348.988613,38.8063604 C348.222565,38.8063604 347.916146,38.500212 347.916146,37.734841 C347.916146,37.0204947 348.171495,36.765371 348.784334,36.8674205 Z"/>
  </g>
</svg>
