<svg xmlns="http://www.w3.org/2000/svg" width="613" height="573" viewBox="0 0 613 573">
  <path fill="#462136" d="M140.452157,486.666912 C147.512471,488.362815 148.280941,488.508179 154.524757,489.767992 C173.447351,493.509257 191.381602,494.829019 223.888092,494.8553 L225.965617,494.855101 C236.782644,494.843146 248.65454,494.654069 252.744782,494.419612 C267.297675,493.595888 276.279164,492.965981 279.641219,492.529891 C281.514363,492.28762 285.260653,491.803076 288.046355,491.51235 C290.832058,491.173169 295.346817,490.640171 298.132519,490.252536 C307.978536,488.895814 312.349207,488.459724 313.165706,488.75045 C314.078264,489.089631 314.318411,491.754621 313.501912,492.239165 C311.964973,493.208253 282.47495,496.551604 259.709038,498.344416 C256.154866,498.586688 243.571175,498.974323 231.755955,499.119686 C215.81021,499.313503 210.238805,499.555775 210.238805,499.94341 C210.238805,500.282591 209.662453,501.445496 208.942013,502.608401 C207.933396,504.110486 206.780692,505.031119 204.619371,506.14557 L201.593522,507.647655 L201.593522,510.215737 C201.593522,512.493093 201.401404,512.977636 199.960524,514.431267 C197.895262,516.514805 194.869412,517.290075 189.057861,517.290075 L184.831278,517.290075 L183.870691,518.937524 C183.342368,519.858157 182.189664,521.021062 181.325135,521.55406 C179.932284,522.474693 179.163814,522.571602 174.216791,522.377784 C169.365827,522.232421 168.021005,521.990149 163.17004,520.342701 C156.49396,518.1138 148.617146,515.01272 147.128237,514.043632 C146.023561,513.316817 145.975532,513.365271 145.687356,514.818902 C145.543268,515.642627 145.39918,517.919982 145.39918,519.858157 C145.39918,527.271676 143.18983,546.168881 139.587628,569.523888 C138.7231,575.289958 137.090102,583.333384 136.657838,584.205563 C136.129515,585.223105 134.208341,585.271559 133.391842,584.302472 C133.055636,583.914837 132.911548,582.994204 133.055636,582.267388 C135.889368,567.004261 137.522366,556.877297 138.434924,548.5916 C138.819159,545.199794 139.203393,541.711079 139.395511,540.8389 C139.827775,538.077001 141.556832,516.272534 141.556832,512.977636 C141.556832,510.312646 141.364714,509.58583 140.356098,508.374471 C138.963247,506.678568 138.915217,506.387842 139.923834,505.3703 C141.076538,504.158941 141.989096,504.449667 144.390563,506.678568 C148.184882,510.264191 152.07526,512.202366 162.209453,515.545718 C171.815323,518.646798 176.041906,519.325159 178.77958,518.065345 C180.508636,517.290075 180.268489,516.853986 177.963081,516.466351 C168.549328,515.01272 156.49396,511.475551 154.428698,509.58583 C153.275994,508.568288 153.324023,506.678568 154.524757,506.048661 C155.245197,505.661026 155.869579,505.757935 157.310459,506.48475 C158.319076,506.969294 160.384338,507.793019 161.969306,508.229108 C163.554275,508.665197 165.811654,509.392013 167.012388,509.779648 C171.911382,511.378642 183.294339,513.365271 188.145303,513.413726 C194.869412,513.46218 198.231467,511.960094 197.559056,509.198195 C197.27088,508.03529 197.078763,507.986836 194.004884,507.986836 C189.490125,507.986836 182.814045,507.163112 178.539433,506.048661 C176.570229,505.564117 172.679852,504.788847 169.894149,504.304304 C167.108447,503.868214 164.562891,503.286762 164.226686,502.996036 C163.89048,502.705309 163.650334,501.93004 163.746392,501.251678 C163.89048,500.185682 164.130627,499.991865 165.811654,499.846502 C167.684799,499.652684 174.072703,500.621771 179.740167,501.93004 C181.325135,502.317674 185.215513,502.996036 188.38545,503.432125 C194.773354,504.304304 199.720377,503.868214 203.082432,502.172311 C204.907547,501.203224 206.20434,499.894956 205.772075,499.458867 C205.627987,499.265049 201.73761,498.974323 197.174821,498.732051 C192.612033,498.538233 187.61698,498.199053 186.032012,498.05369 C184.495072,497.908327 180.700754,497.569146 177.626875,497.326874 C166.820271,496.309332 156.49396,494.710338 146.359767,492.384528 C136.801926,490.252536 135.120899,489.574175 134.928781,488.072089 C134.640605,485.794734 135.74528,485.504007 140.452157,486.666912 Z M262.48357,9.09988978 C270.525918,10.5913696 271.729862,10.9281553 276.930902,12.8526454 C279.579579,13.8148904 282.757992,14.9695844 284.010095,15.4025947 C285.262197,15.8837172 288.103505,17.182748 290.318763,18.2893298 C295.13454,20.6949423 296.386642,22.4269834 296.820062,27.141984 C297.060851,29.9324946 297.205324,30.3173926 299.757686,33.0597909 C301.250577,34.6956074 303.225046,37.3417813 304.140044,38.9775978 L305.825566,41.8643329 L311.604499,41.9124451 C329.278401,41.9605574 345.940991,48.8887216 357.884119,61.2054579 C367.80462,71.4052551 378.254857,89.1105636 382.829845,103.255565 C385.09326,110.328066 386.152732,115.139292 386.730625,121.29766 C387.982727,134.143631 390.631404,146.31603 393.665344,153.292307 C394.146922,154.350776 394.676657,155.553583 394.821131,156.034705 C395.06192,156.660164 397.614282,158.969552 401.900323,162.33741 C404.549001,164.454349 412.446876,169.409911 413.169242,169.409911 C414.854764,169.409911 421.500537,170.949503 425.016054,172.104197 C433.010245,174.798483 445.627581,182.111545 453.23651,188.41425 C459.834124,193.850935 474.666719,208.28461 478.95276,213.432621 C481.408807,216.41558 484.057484,219.735326 484.731693,220.697571 C485.116955,221.274918 486.3209,223.006959 487.428529,224.546551 C488.536157,226.134255 489.932733,228.347419 490.606942,229.550225 C491.28115,230.753031 493.159304,233.92844 494.796668,236.670838 C496.385874,239.365124 497.734292,241.770737 497.734292,242.011298 C497.734292,242.251859 498.601132,242.540533 499.708761,242.732982 C504.669011,243.502778 509.147684,251.489412 513.385568,267.077781 C515.600826,275.112527 516.467666,277.95115 518.10503,282.714263 C529.277633,314.564573 530,317.451308 530,328.998248 C530,340.208403 527.784742,348.579935 523.065281,355.026976 C522.246599,356.18167 518.008714,361.570242 513.626357,367.055039 C504.380065,378.553867 501.009021,383.028306 497.011925,388.994226 C495.422719,391.351726 493.303777,394.479022 492.292464,395.970502 C491.28115,397.461982 490.366153,399.097798 490.269837,399.627033 C485.45406,423.394485 483.624064,440.618671 483.575907,463.135205 C483.527749,475.259492 483.913011,480.503727 485.743006,492.483678 C486.272742,495.94776 486.898793,500.277863 487.18774,502.106128 C487.476686,503.982506 488.102737,507.879598 488.584315,510.766333 C489.065893,513.701181 489.595628,517.020926 489.788259,518.223732 C490.606942,524.57455 493.111146,539.441235 494.844826,548.293889 C496.819294,558.589911 496.963768,559.985166 496.289559,560.803075 C495.952454,561.187973 495.278246,561.524759 494.796668,561.524759 C493.062988,561.524759 492.533252,559.84083 490.510626,547.957104 C489.451155,541.846848 489.017735,539.489347 488.343526,535.929041 C487.958264,533.908326 487.62116,531.647051 487.62116,530.925367 C487.62116,530.203683 487.428529,528.85654 487.18774,527.894295 C486.513531,525.248121 484.009327,509.755976 482.805382,500.662761 C482.516436,498.30526 481.842227,493.734597 481.360649,490.559188 C479.675127,480.118829 479.434338,476.269849 479.434338,462.654082 C479.434338,450.096785 480.012231,440.618671 481.360649,429.69719 C481.649596,427.435914 482.083016,423.875608 482.323805,421.758669 C483.238802,414.060708 484.201958,407.517442 484.539062,406.940095 C485.165113,405.881626 484.394589,406.747646 478.808287,413.723923 C467.876473,427.291578 453.140194,442.446937 438.018653,455.629694 C433.636296,459.430561 429.44657,463.135205 428.627887,463.808776 C427.27947,465.011583 420.296593,470.640716 417.070022,473.094441 C415.191869,474.537808 405.704787,480.215054 405.126894,480.215054 C404.886105,480.215054 404.019265,480.503727 403.200583,480.888625 C400.118486,482.235768 396.747442,482.861228 392.509558,482.861228 C388.656936,482.861228 387.838254,482.668779 385.045103,481.321636 C380.99985,479.397146 375.36539,475.067043 369.682773,469.486022 C365.396731,465.252144 365.155942,465.107807 364.481734,466.02194 C360.773585,471.121838 356.150439,477.13587 354.079655,479.49337 L351.57545,482.331993 L351.57545,503.308935 C351.57545,523.900978 352.057028,535.014908 353.549919,548.293889 C353.935181,551.757972 354.464917,556.713533 354.705706,559.359707 C355.283599,564.940728 356.198597,571.291546 357.402541,578.267822 C358.028592,581.876241 358.124908,583.415833 357.787803,584.041292 C357.20991,584.955425 355.717019,585.292211 354.850179,584.714864 C354.272286,584.378078 353.74255,581.491343 351.864397,569.46328 C350.70861,561.813432 349.504666,551.709859 348.445195,540.114807 C347.674671,531.454601 346.952304,503.21271 347.289409,494.552505 C347.48204,490.078065 347.48204,486.469647 347.337566,486.469647 C347.193093,486.469647 346.133622,487.095106 344.977835,487.81679 C340.354689,490.895974 338.091274,491.521433 331.975237,491.521433 C325.666568,491.521433 324.462624,491.04031 325.040517,488.68281 C325.329464,487.480004 325.377622,487.480004 330.289715,487.576228 C334.046021,487.624341 335.827859,487.431892 337.994958,486.75832 C341.41416,485.603626 347.385724,480.936738 350.853084,476.750972 L351.399784,476.090121 C352.61016,474.623937 353.757207,473.217859 354.17597,472.757655 C354.60939,472.22842 356.872805,469.245461 359.232536,466.118164 C364.915154,458.516429 367.3712,455.918367 374.209604,450.193009 C377.388017,447.546835 380.084852,445.237447 380.229325,445.093111 C380.373799,444.948774 382.974318,442.543161 386.008258,439.848875 C389.042198,437.106477 393.280082,433.305609 395.350866,431.429231 C397.42165,429.552853 399.58875,427.628363 400.070328,427.195353 C400.600063,426.762343 403.971108,423.586934 407.534783,420.219077 C411.146616,416.851219 414.51766,413.67581 415.095553,413.194688 C416.106866,412.280555 421.067117,407.517442 435.032871,393.949787 C439.318913,389.812134 442.593642,386.396164 442.256537,386.396164 C441.919433,386.396164 439.944964,385.866929 437.826022,385.24147 C435.658922,384.616011 430.987618,383.31698 427.423943,382.306623 C419.526068,380.189684 415.81792,379.131214 408.8832,377.014275 C405.993734,376.100142 401.659534,374.801111 399.251646,374.079428 C378.543803,367.872947 370.260666,363.350396 358.606485,351.851568 L352.394133,345.741312 L351.238346,347.184679 C350.564137,348.002588 349.649139,349.301618 349.119404,350.071414 C348.637826,350.889323 346.904146,353.343047 345.31494,355.604323 C338.476536,365.130549 331.108397,377.832183 324.510782,391.207389 C317.913167,404.582595 317.479747,405.54484 311.700814,420.315301 C310.882132,422.43224 310.06345,424.308618 309.822661,424.452955 C309.581872,424.597291 306.114512,425.222751 302.06926,425.800098 C298.024007,426.377445 293.015598,427.147241 290.896656,427.484027 C288.777714,427.868925 285.214039,428.398159 282.950624,428.734945 C280.687208,429.071731 276.256693,429.793415 273.07828,430.418874 C269.899867,431.044333 265.902772,431.814129 264.169092,432.102803 C262.435412,432.391476 259.305157,433.065048 257.186215,433.54617 C255.067273,434.027293 252.033333,434.652752 250.444127,434.989538 C242.546252,436.577242 223.909194,441.24413 209.991597,445.044998 C193.184534,449.711887 184.612451,451.49204 175.029054,452.35806 C167.32381,453.031632 155.284367,452.646734 151.431745,451.636377 C148.686752,450.914693 143.870975,448.364744 140.981508,446.103468 C137.321517,443.216733 134.094947,436.721579 132.891002,429.745302 C132.07232,425.270863 131.253638,423.250148 129.857063,422.480352 C128.316014,421.662444 127.015754,421.903005 125.474705,423.346373 C124.07813,424.549179 123.933657,424.98219 123.548394,429.216068 C123.307605,431.717905 122.77787,434.893313 122.392608,436.192344 C121.525768,439.127191 118.973406,442.687498 117.817619,442.687498 C117.143411,442.687498 116.998937,442.976171 117.191568,443.890304 C117.432357,445.381784 116.565517,446.536478 115.168942,446.536478 C111.171847,446.58459 98.8434567,457.506071 93.7387327,465.492705 C91.8124218,468.571889 91.8124218,470.352042 93.7868905,474.922706 C95.2316237,478.242452 95.376097,479.012248 95.4724126,484.208371 C95.5687281,489.596943 95.6168859,489.933729 97.0134613,491.906331 C97.7839857,493.012913 99.3250344,494.793066 100.432663,495.851536 L102.407132,497.776026 L102.070027,500.710873 C101.684765,504.415516 102.118185,505.185312 105.585545,507.4947 C107.222909,508.601282 109.101062,510.429548 110.208691,511.96914 C112.18316,514.807763 114.879995,516.780365 116.758148,516.780365 C120.462998,516.780365 126.791304,511.725626 136.574767,500.969881 L136.984413,500.518424 C141.029666,496.043985 142.715188,494.985515 144.015448,496.092097 C145.363866,497.198679 144.785972,498.690158 141.703875,501.865567 C140.018353,503.597608 136.358362,507.350364 133.613369,510.188986 C123.933657,520.244447 117.913935,522.746284 111.412635,519.378426 C110.690269,518.993528 108.908431,517.165263 107.41554,515.336997 C105.922649,513.46062 103.611076,511.247456 102.118185,510.333323 C98.8434567,508.216384 98.0247745,506.676792 98.0247745,502.635363 C98.0247745,499.700516 97.928459,499.411842 96.2429369,497.679801 C95.2797815,496.669444 93.7387327,494.793066 92.8718928,493.494035 C91.3517822,491.331076 91.2856905,491.148995 91.2828169,486.379314 L91.2826863,485.699851 C91.2826863,480.263166 91.0418974,479.06036 88.9711132,474.441584 C86.466909,468.81245 88.6821665,463.423878 97.0616191,454.571224 L100.914241,450.481683 L100.914241,446.728927 C100.914241,439.896987 103.418445,432.583925 108.089749,425.607649 C109.390009,423.635046 112.953684,418.920046 115.987624,415.16729 C121.092348,408.816473 127.401016,400.156268 127.401016,399.578921 C127.401016,399.434584 128.027067,398.424227 128.749434,397.317645 C129.519958,396.211063 130.531271,394.286573 131.012849,393.035655 C131.976005,390.485705 132.024162,391.207389 128.845749,371.240805 C126.67865,357.913711 125.137601,347.61769 124.51155,342.854577 C123.789183,337.081106 123.114974,331.933096 122.585239,328.420901 C120.899717,317.547532 120.273666,281.270895 121.47761,269.19472 C122.296292,261.400535 124.896812,247.688544 126.534176,242.540533 C127.882594,238.402879 132.409425,228.972878 135.732311,223.391857 C137.177044,220.938132 138.525462,218.147621 138.669935,217.137264 C139.055197,215.212774 140.548088,209.487416 143.10045,200.682874 C146.471494,188.84726 148.73491,178.070116 149.553592,170.083482 C150.131485,164.310012 149.890696,160.028022 148.157016,145.594347 C144.785972,118.266588 145.026761,102.29332 148.879383,85.935155 C152.057796,72.5599492 155.476998,63.6110704 160.485406,55.8168857 C164.626975,49.2736196 172.043272,40.6615266 178.689045,34.5993829 C181.626669,32.0013214 191.54717,24.4476979 193.329008,23.5816774 C194.003217,23.1967794 195.399792,22.4269834 196.362947,21.8496364 C206.620553,15.5950437 218.178419,11.4573901 232.384962,8.85932853 C239.319681,7.60841 255.404377,7.75274675 262.48357,9.09988978 Z M502.261123,251.826197 C504.813485,257.984565 506.402691,271.071098 506.402691,286.130232 C506.402691,297.725285 505.439536,314.853246 504.428222,321.204064 C503.127963,329.527483 497.926923,344.249832 494.218775,350.071414 C488.969577,358.394834 479.675127,368.738968 472.788565,373.935091 C471.295674,375.089785 469.610152,376.436928 469.080417,376.918051 C468.550681,377.399173 465.853846,379.323663 463.060695,381.151929 C460.267544,382.980194 457.811498,384.664123 457.522551,384.856572 C457.281762,385.049021 456.174134,385.722592 455.114663,386.348052 C447.16863,391.111165 437.777864,397.41387 435.369976,399.675145 C433.780769,401.118513 429.976305,404.775044 426.942365,407.758004 C421.500537,413.098463 407.534783,426.184996 405.367683,428.013261 C404.741632,428.542496 403.104268,430.082088 401.707692,431.381119 C400.311117,432.728262 398.432964,434.460303 397.517966,435.230099 C396.602968,436.048007 393.472713,438.838518 390.535089,441.484692 C384.467209,446.969488 383.118792,448.172295 376.858281,453.512754 C374.402235,455.629694 371.416453,458.32398 370.308824,459.478674 L368.23804,461.595613 L369.153038,462.894643 C370.212509,464.338011 376.761966,470.448267 380.56643,473.479339 C381.963005,474.537808 384.515367,476.221737 386.249047,477.13587 C388.945882,478.483013 389.957196,478.771686 392.509558,478.771686 C394.19508,478.771686 396.747442,478.483013 398.192175,478.098115 C403.48953,476.70286 407.823729,474.345359 417.310811,467.657756 C419.044491,466.406838 428.916834,458.131531 429.831832,457.121173 C429.976305,456.976837 431.372881,455.77403 432.962087,454.475 C434.551294,453.127856 436.1405,451.732601 436.57392,451.299591 C436.959182,450.866581 439.270755,448.749642 441.630486,446.632703 C447.409419,441.532804 456.848343,432.150915 463.108853,425.367088 C473.99251,413.483361 481.794069,403.572238 492.677726,387.839532 C498.745605,379.03499 502.598227,373.886979 507.895582,367.391825 C509.436631,365.563559 511.940835,362.484375 513.481884,360.607997 C515.022933,358.683507 516.612139,356.662793 516.997401,356.085446 C517.382663,355.508099 518.53845,353.968507 519.501605,352.621364 C522.776334,348.291261 524.221067,344.105495 525.473169,335.397178 C526.243694,330.056718 526.147378,326.352074 524.895276,318.124879 C524.221067,313.746665 518.875554,296.76304 514.059777,283.917069 C512.422413,279.44263 511.025837,274.823853 509.773735,269.483393 C508.473475,263.85426 504.9098,254.376147 502.935331,251.200738 C501.538756,248.89135 501.153494,249.228136 502.261123,251.826197 Z M138.188357,433.690507 C139.488617,437.828161 141.125982,440.570559 143.630186,442.639386 C145.363866,444.082753 145.604654,444.130865 150.275958,444.178978 C156.825416,444.22709 157.499624,444.467651 157.499624,446.536478 C157.499624,448.07607 157.644098,448.268519 159.185146,448.50908 C161.978297,448.990203 168.720386,448.893978 174.595634,448.316631 C180.08562,447.739284 180.08562,447.739284 181.193249,446.103468 C181.8193,445.189335 182.300878,444.082753 182.300878,443.601631 C182.300878,442.446937 180.470882,441.099794 177.147996,439.800763 C174.836423,438.934742 169.779857,436.96214 159.76304,433.016935 C159.136989,432.776374 155.476998,432.247139 151.576218,431.862241 C147.675439,431.429231 143.196766,430.899996 141.607559,430.659435 C136.743624,429.889639 136.936255,429.69719 138.188357,433.690507 Z M133.083633,398.376115 L130.868376,401.984533 C128.508645,405.785401 123.596552,412.713565 122.488923,413.868259 C120.273666,416.177648 111.412635,428.109486 109.727113,431.092445 C107.319225,435.278211 105.441072,440.763008 105.055809,444.804437 L104.766863,447.594948 L107.126594,445.862907 C108.378696,444.900662 110.401322,443.697855 111.557109,443.16862 C112.712895,442.639386 114.157629,442.206375 114.735522,442.206375 C115.457888,442.206375 115.698677,441.965814 115.506046,441.340355 C115.409731,440.859232 115.987624,439.367753 116.806306,437.972497 C118.154724,435.903671 118.44367,434.700864 119.069721,429.889639 C119.840246,423.346373 120.755243,421.325658 123.692868,419.449281 C125.763652,418.054025 129.134696,417.71724 131.349954,418.58326 C133.276265,419.353056 135.10626,421.518107 135.684153,423.731271 C136.40652,426.425557 137.032571,426.425557 137.032571,423.683159 C137.032571,421.469995 135.347049,409.201371 134.624682,405.881626 C134.383893,404.823156 133.950473,402.706217 133.661527,401.166625 L133.083633,398.376115 Z M258.919895,202.607364 C258.679106,202.607364 258.004897,204.146956 257.427004,206.071446 C255.934113,210.978896 253.718855,215.164662 248.4215,223.006959 C245.917296,226.711602 243.220461,231.041705 242.449936,232.533185 C240.716256,235.949154 238.982577,241.963186 237.441528,249.613034 C231.951542,277.037017 224.872349,293.876305 214.373955,304.316663 C203.538456,315.14192 188.850335,320.722941 176.762734,318.606002 C167.660915,317.018298 158.125675,311.29294 151.865165,303.59498 C150.853852,302.392173 150.03517,301.141255 150.03517,300.804469 C150.03517,300.515796 149.842538,300.275234 149.649907,300.275234 C148.590436,300.275234 143.389397,289.690539 140.885193,282.473701 C140.548088,281.559569 140.114668,280.356762 139.873879,279.827528 C138.669935,276.940792 136.310204,266.21176 135.347049,258.994923 C134.528367,252.788442 134.432051,243.262217 135.10626,237.296297 C135.347049,235.035022 135.491522,233.158644 135.443364,233.062419 C135.250733,232.918083 133.902316,235.612369 132.313109,239.172675 C130.434956,243.454666 128.123383,252.547881 126.67865,261.544872 C125.185759,270.878649 124.800496,277.277578 124.800496,292.336713 C124.800496,312.207073 125.859967,324.860595 129.327327,346.944118 C130.146009,352.236466 131.20548,359.260854 132.216794,366.42958 C133.228107,373.405856 136.117573,391.111165 136.83994,394.575247 C137.27336,396.547849 137.803095,399.482696 138.043884,401.070401 C140.93335,419.401168 141.318613,422.095454 141.36677,424.452955 L141.36677,426.666118 L145.123077,427.002904 C157.933044,428.061374 161.159615,428.638721 166.168024,430.899996 C170.454065,432.824486 173.343532,433.97918 176.570103,434.989538 C183.601137,437.202701 186.972182,440.426222 186.442446,444.515764 C186.201657,446.15158 186.297973,446.536478 186.924024,446.536478 C187.357444,446.536478 191.210066,445.670458 195.496107,444.611988 C199.733992,443.553518 203.923718,442.446937 204.694242,442.206375 C207.439235,441.340355 226.846818,436.048007 230.940229,435.085762 C233.203644,434.556528 237.537843,433.54617 240.571783,432.824486 C243.605723,432.150915 247.410187,431.284894 248.999393,430.899996 C252.466753,430.082088 276.641955,425.559537 283.913779,424.35673 C285.358512,424.116169 289.162976,423.49071 292.341389,422.961475 C295.519802,422.43224 300.046633,421.758669 302.406364,421.518107 C306.788721,421.036985 307.270299,420.796424 307.848192,418.631372 C307.992666,417.957801 309.822661,413.435249 311.893445,408.575912 C313.96423,403.716574 315.553436,399.578921 315.45712,399.33836 C314.782912,398.27989 308.955821,381.440602 307.607403,376.533153 C307.270299,375.474683 306.210828,371.914376 305.199515,368.642743 L303.369519,362.628712 L301.057946,361.858916 C299.805844,361.474018 298.553742,360.752334 298.312953,360.319324 C297.831375,359.405191 294.70112,346.318659 293.978754,342.132893 C291.907969,329.912381 290.463236,308.646766 291.619023,307.251511 C292.341389,306.38549 294.460331,306.289266 294.70112,307.155286 C294.797436,307.44396 295.13454,311.966511 295.471645,317.114522 C296.242169,330.778402 297.494271,339.342382 300.576369,352.573251 L301.828471,358.009936 L303.56215,358.442946 C311.941603,360.607997 323.740257,360.607997 335.683385,358.394834 L338.572852,357.865599 L342.088369,352.7657 C344.062838,349.97519 346.518884,346.462995 347.530197,345.019628 C349.215719,342.758352 349.360193,342.325342 348.685984,341.844219 C347.337566,340.881974 347.867302,338.813148 350.178875,335.830188 C353.405446,331.644422 358.750959,323.89835 364.722522,314.805134 L367.323042,310.763705 L367.082253,299.168653 C366.793307,285.504773 366.119098,282.23314 361.351478,270.445639 C358.07675,262.410893 351.14203,253.943136 342.232842,247.255533 C334.383125,241.337727 327.496564,235.564256 323.499469,231.619052 L319.020796,227.192725 L316.75738,228.539868 C313.53081,230.416245 311.604499,230.993593 308.377928,230.993593 C303.176888,230.993593 298.120322,228.924766 289.403765,223.24752 C284.154568,219.783438 282.131941,218.580632 276.54564,215.645784 C274.474855,214.539203 271.585389,212.903386 270.092498,211.941141 C266.721454,209.824202 259.353315,203.713946 259.353315,203.088487 C259.353315,202.799813 259.160684,202.607364 258.919895,202.607364 Z M335.490754,362.724936 L333.660759,363.01361 C325.955515,364.168304 322.969733,364.360753 315.986856,364.168304 L308.137139,363.975855 L308.859506,366.140906 C309.244768,367.343713 309.822661,369.460652 310.159765,370.759682 C310.49687,372.106825 311.36371,374.801111 311.989761,376.773714 C312.66397,378.746316 313.771598,382.210398 314.445807,384.471674 C315.986856,389.427236 317.768694,394.094124 318.105798,394.094124 C318.250271,394.094124 319.79132,391.111165 321.573158,387.454634 C323.403153,383.846215 325.329464,379.997235 325.955515,378.938765 C326.533408,377.880296 327.978141,375.282234 329.182086,373.165295 C330.337872,371.048356 332.216026,367.824835 333.371812,366.044682 L335.490754,362.724936 Z M417.455284,179.22481 C416.058709,184.469046 414.51766,188.077464 411.146616,193.658486 C408.786885,197.555578 403.537688,205.397875 402.911637,205.975222 C402.767163,206.119559 401.75585,207.322365 400.696379,208.621396 C389.764564,222.3815 376.376704,231.859613 360.725427,236.959512 C354.946494,238.884002 351.045715,239.653798 345.025993,240.038696 L340.499163,240.375481 L345.31494,244.320686 C357.498856,254.23181 361.977529,260.197729 366.93778,273.188037 C369.682773,280.404875 371.560926,291.085794 371.560926,299.505438 L371.560926,303.835541 L375.991441,297.099826 C378.447488,293.443295 380.662745,290.027325 380.951692,289.594315 C381.192481,289.113192 382.396425,287.381151 383.552212,285.745334 C384.707998,284.061406 386.634309,281.319007 387.838254,279.586966 C393.665344,271.263547 395.206393,269.483393 396.506653,269.483393 C397.999544,269.483393 398.625595,271.263547 397.758755,272.851251 C397.373493,273.524823 396.217706,275.256864 395.110077,276.700231 C394.050606,278.143599 392.365084,280.549211 391.401929,281.992579 C390.438773,283.435946 389.475618,284.734977 389.331145,284.879314 C388.849567,285.264212 377.436175,302.488398 373.246448,309.176001 C366.648833,319.664472 361.110689,327.987891 357.017279,333.568912 C354.898337,336.503759 353.116499,339.198046 353.068341,339.534831 C353.020184,339.871617 355.524388,342.71024 358.606485,345.837536 C371.609084,359.116518 377.291701,362.628712 394.917446,368.257845 C402.574532,370.71157 412.157929,373.598305 416.588444,374.849224 C418.707386,375.474683 422.174746,376.48504 424.293688,377.1105 C426.41263,377.784071 430.120778,378.794428 432.480509,379.419888 C434.888398,380.045347 439.656018,381.296265 443.075219,382.210398 C446.542579,383.124531 449.624677,383.894327 450.009939,383.943782 C450.395201,383.990551 452.658616,382.739633 455.066505,381.248153 C468.79147,372.684172 479.241707,363.590957 486.609846,353.679833 C490.029048,349.157282 495.470877,339.053709 496.289559,335.8783 C496.530348,334.964167 497.34903,331.836871 498.167712,328.902024 C501.297967,317.788094 502.164807,308.502429 502.212965,287.284926 L502.212038,285.642811 C502.198836,274.496809 502.040035,270.568106 501.442441,267.077781 C500.286654,260.486403 498.841921,254.809157 497.397188,250.960177 C495.807981,246.726299 485.213271,228.106857 484.201958,227.721959 C483.961169,227.625735 483.768538,227.337061 483.768538,227.0965 C483.768538,225.556908 474.522245,214.539203 466.431739,206.456344 C458.052287,198.0367 456.174134,196.304659 451.021252,192.26323 C449.046783,190.675526 447.216788,189.232158 446.927841,189.039709 C439.463386,183.121903 425.11237,175.664504 420.007646,175.087157 C418.659228,174.94282 418.611071,174.990932 417.455284,179.22481 Z M224.390771,150.405572 C225.257611,152.233837 226.461556,154.735674 227.039449,155.938481 C228.291551,158.680879 233.685222,165.849604 236.815477,168.976901 C239.175208,171.334401 246.495189,176.674861 252.081491,180.090831 C256.030428,182.544556 256.560164,184.853944 253.429909,185.912413 C252.852015,186.104862 255.452535,191.445322 257.764108,194.620731 C260.509101,198.421598 266.914085,204.579967 271.151969,207.514814 C273.270911,209.006294 277.219849,211.267569 279.868526,212.614713 C282.565361,213.961856 287.814559,217.04104 291.570865,219.446652 C301.200982,225.655287 302.933568,226.401568 307.770623,226.422462 L307.992666,226.422929 C311.171079,226.422929 312.471339,226.23048 313.771598,225.460684 C316.083172,224.161653 319.3579,221.611704 322.006578,219.109866 C324.462624,216.752366 326.437093,216.41558 327.448406,218.243846 C328.315246,219.879662 331.25287,224.498439 331.589974,224.739 C331.734448,224.883337 333.275497,227.433286 335.009176,230.368133 L338.091274,235.804818 L342.666262,235.804818 C345.218624,235.804818 349.263877,235.41992 351.816239,234.890685 C363.374105,232.581297 374.06513,227.52951 383.60037,219.879662 C387.356676,216.896703 393.472713,210.882671 395.880602,207.899712 C396.410337,207.22614 397.614282,205.734661 398.577437,204.531854 C400.262959,202.414915 401.659534,200.538537 405.608472,194.668843 C406.716101,193.081139 408.497938,189.953842 409.653725,187.692566 C411.91714,183.170015 414.662133,175.520167 414.08424,175.327718 C412.061613,174.606034 398.047701,165.031696 395.110077,162.33741 L393.857975,161.182716 L392.509558,163.155318 C389.812722,167.052411 382.107479,173.403228 371.801715,180.28328 C366.600676,183.747362 363.855683,185.864301 358.750959,190.242516 C350.467822,197.411241 347.144935,199.576292 340.017585,202.366803 C339.487849,202.559252 336.935487,202.896038 334.28681,203.040375 L329.51919,203.329048 L328.796824,205.638436 C327.78551,208.813845 325.040517,211.267569 322.439998,211.267569 C320.898949,211.267569 320.128424,210.930784 318.587376,209.535528 C317.527905,208.573283 316.661065,207.418589 316.661065,206.985579 C316.661065,204.964865 319.695005,204.291293 321.139738,206.023334 C322.343682,207.418589 323.499469,206.985579 324.55894,204.820528 C325.42578,203.040375 325.473937,202.559252 324.896044,198.325374 C324.12552,192.070781 322.873418,188.462362 320.128424,184.902056 C318.683691,183.025678 315.360805,180.956851 313.723441,180.956851 C311.893445,180.956851 309.533714,182.688892 308.088981,185.046393 C305.873724,188.702924 304.86241,188.462362 299.709529,183.07379 C292.1006,175.135269 285.358512,171.767411 271.537231,168.976901 C266.143561,167.918431 261.135152,165.609043 256.463848,162.144961 C245.483876,153.965878 244.183616,153.292307 232.866539,150.116898 C227.858131,148.721643 225.113138,147.759398 223.861036,146.989602 C222.416303,146.075469 222.46446,146.412255 224.390771,150.405572 Z M324.703413,222.237163 L323.643942,223.391857 L322.584471,224.498439 L325.281306,227.337061 C326.774197,228.924766 328.507877,230.704919 329.182086,231.330378 C329.856295,231.907725 330.626819,232.629409 330.867608,232.86997 C332.312341,234.265226 331.734448,232.918083 329.326559,229.213439 C327.833668,226.855939 326.196304,224.354102 325.666568,223.632418 L324.703413,222.237163 Z M295.038225,34.6956074 C294.797436,34.6956074 294.508489,35.0323932 294.315858,35.4172912 C293.978754,36.3795362 288.536925,40.2766286 285.214039,41.9605574 C283.721148,42.7303534 280.590893,43.9812719 278.231162,44.751068 C272.548545,46.5793335 264.313565,51.2943341 259.88305,55.1914265 C259.208841,55.7687735 258.101213,56.7310185 257.427004,57.3083655 C256.752795,57.8376003 257.812266,57.3083655 259.690419,56.1536715 C261.61673,54.9508652 264.891459,53.1225997 266.914085,52.0641301 C276.641955,47.2047928 285.40667,44.3661699 295.856907,42.7303534 C298.361111,42.2973431 300.480053,41.8643329 300.624526,41.7199961 C301.20242,41.1426491 296.049538,34.6956074 295.038225,34.6956074 Z"/>
</svg>
