<svg xmlns="http://www.w3.org/2000/svg" width="22" height="22" viewBox="0 0 22 22">
  <path fill="#FFF" d="M20.3216231,10.800571 L3.31611226,10.800571 L9.76447562,4.14863659 C9.99497236,3.87251156 9.97947516,3.46090358 9.72890372,3.20384146 C9.47833229,2.94677933 9.07711719,2.9308807 8.80796418,3.16734812 L1.19957629,11.005876 C1.16748747,11.0384856 1.13904578,11.0746669 1.11477917,11.1137482 C1.10336911,11.130355 1.09316589,11.1478009 1.08425221,11.1659443 L1.05033337,11.2355393 L1.02998206,11.3051342 C1.02231173,11.3241842 1.01662697,11.3440131 1.01302264,11.3642899 C0.995659121,11.4538865 0.995659121,11.5461135 1.01302264,11.6357101 C1.01662697,11.6559869 1.02231173,11.6758158 1.02998206,11.6948658 L1.05033337,11.7644607 L1.08425221,11.8340557 C1.09316589,11.8521991 1.10336911,11.869645 1.11477917,11.8862518 C1.13904578,11.9253331 1.16748747,11.9615144 1.19957629,11.994124 L8.80796418,19.8326519 C9.07711719,20.0691193 9.47833229,20.0532207 9.72890372,19.7961585 C9.97947516,19.5390964 9.99497236,19.1274884 9.76447562,18.8513634 L3.31611226,12.1924695 L20.3216231,12.1924695 C20.6962803,12.1924695 21,11.8808824 21,11.4965203 C21,11.1121581 20.6962803,10.800571 20.3216231,10.800571 Z" transform="rotate(-180 11 11.5)"/>
</svg>
