<svg xmlns="http://www.w3.org/2000/svg" width="13" height="22" viewBox="0 0 13 22">
  <path fill="#462136" d="M15.6785937,0 C16.6151003,0.00094740244 17.3740526,0.759899656 17.375,1.69640625 L17.375,1.69640625 L17.375,20.3035937 C17.3740526,21.2401003 16.6151003,21.9990526 15.6785937,22 L15.6785937,22 L6.69640625,22 C5.75989966,21.9990526 5.0009474,21.2401003 5,20.3035937 L5,20.3035937 L5,1.69640625 C5.0009474,0.759899656 5.75989966,0.00094740244 6.69640625,0 L6.69640625,0 Z M7.75,0.6875 L6.69640625,0.6875 C6.1395951,0.688446155 5.68844616,1.1395951 5.6875,1.69640625 L5.6875,1.69640625 L5.6875,20.3035937 C5.68844616,20.8604049 6.1395951,21.3115538 6.69640625,21.3125 L6.69640625,21.3125 L15.6785937,21.3125 C16.2354049,21.3115538 16.6865538,20.8604049 16.6875,20.3035938 L16.6875,20.3035938 L16.6875,1.69640625 C16.6865538,1.1395951 16.2354049,0.688446155 15.6785938,0.6875 L15.6785938,0.6875 L14.625,0.6875 L14.625,1.203125 C14.6277855,1.47747395 14.5200309,1.74139795 14.3260269,1.93540195 C14.1320229,2.12940595 13.8680989,2.23716048 13.59375,2.234375 L13.59375,2.234375 L8.78125,2.234375 C8.50690105,2.23716048 8.24297705,2.12940595 8.04897305,1.93540195 C7.85496905,1.74139795 7.74721452,1.47747395 7.75,1.203125 L7.75,1.203125 L7.75,0.6875 Z M15.65625,12.7685938 C15.8460979,12.7685938 16,12.9224959 16,13.1123438 L16,13.1123438 L16,15.46875 C16,15.6585979 15.8460979,15.8125 15.65625,15.8125 L15.65625,15.8125 L13.2998438,15.8125 C13.1099959,15.8125 12.9560938,15.6585979 12.9560938,15.46875 C12.9560938,15.2789021 13.1099959,15.125 13.2998438,15.125 L13.2998438,15.125 L15.3125,15.125 L15.3125,13.1123438 C15.3125,12.9224959 15.4664021,12.7685938 15.65625,12.7685938 Z M6.71875,12.7685938 C6.90859788,12.7685938 7.0625,12.9224959 7.0625,13.1123438 L7.0625,13.1123438 L7.0625,15.125 L9.07515625,15.125 C9.26500413,15.125 9.41890625,15.2789021 9.41890625,15.46875 C9.41890625,15.6585979 9.26500413,15.8125 9.07515625,15.8125 L9.07515625,15.8125 L6.71875,15.8125 C6.52890212,15.8125 6.375,15.6585979 6.375,15.46875 L6.375,15.46875 L6.375,13.1123438 C6.375,12.9224959 6.52890212,12.7685938 6.71875,12.7685938 Z M11.1875,12.890625 C11.3773479,12.890625 11.53125,13.0445271 11.53125,13.234375 L11.53125,13.234375 L11.53125,13.75 L11.703125,13.75 C11.8929729,13.75 12.046875,13.9039021 12.046875,14.09375 C12.046875,14.2835979 11.8929729,14.4375 11.703125,14.4375 L11.703125,14.4375 L11.1875,14.4375 C10.9976521,14.4375 10.84375,14.2835979 10.84375,14.09375 L10.84375,14.09375 L10.84375,13.234375 C10.84375,13.0445271 10.9976521,12.890625 11.1875,12.890625 Z M14.28125,13.75 C14.4710979,13.75 14.625,13.9039021 14.625,14.09375 C14.625,14.2835979 14.4710979,14.4375 14.28125,14.4375 L14.28125,14.4375 L13.421875,14.4375 C13.2320271,14.4375 13.078125,14.2835979 13.078125,14.09375 C13.078125,13.9039021 13.2320271,13.75 13.421875,13.75 L13.421875,13.75 Z M9.46875,12.375 C9.65859788,12.375 9.8125,12.5289021 9.8125,12.71875 L9.8125,12.71875 L9.8125,14.09375 C9.8125,14.2835979 9.65859788,14.4375 9.46875,14.4375 L9.46875,14.4375 L8.09375,14.4375 C7.90390212,14.4375 7.75,14.2835979 7.75,14.09375 L7.75,14.09375 L7.75,12.71875 C7.75,12.5289021 7.90390212,12.375 8.09375,12.375 L8.09375,12.375 Z M9.125,13.0625 L8.4375,13.0625 L8.4375,13.75 L9.125,13.75 L9.125,13.0625 Z M14.28125,10.65625 C14.4710979,10.65625 14.625,10.8101521 14.625,11 L14.625,11 L14.625,12.375 C14.625,12.5648479 14.4710979,12.71875 14.28125,12.71875 C14.0914021,12.71875 13.9375,12.5648479 13.9375,12.375 L13.9375,12.375 L13.9375,11.34375 L13.25,11.34375 L13.25,11.6875 C13.25,11.8773479 13.0960979,12.03125 12.90625,12.03125 C12.7164021,12.03125 12.5625,11.8773479 12.5625,11.6875 L12.5625,11.6875 L12.5625,11 C12.5625,10.8101521 12.7164021,10.65625 12.90625,10.65625 L12.90625,10.65625 Z M11.1875,10.65625 C11.3773479,10.65625 11.53125,10.8101521 11.53125,11 L11.53125,11 L11.53125,11.6875 C11.53125,11.8773479 11.3773479,12.03125 11.1875,12.03125 C10.9976521,12.03125 10.84375,11.8773479 10.84375,11.6875 L10.84375,11.6875 L10.84375,11.34375 L8.09375,11.34375 C7.90390212,11.34375 7.75,11.1898479 7.75,11 C7.75,10.8101521 7.90390212,10.65625 8.09375,10.65625 L8.09375,10.65625 Z M9.46875,7.5625 C9.65859788,7.5625 9.8125,7.71640212 9.8125,7.90625 L9.8125,7.90625 L9.8125,9.28125 C9.8125,9.47109788 9.65859788,9.625 9.46875,9.625 L9.46875,9.625 L8.09375,9.625 C7.90390212,9.625 7.75,9.47109788 7.75,9.28125 L7.75,9.28125 L7.75,7.90625 C7.75,7.71640212 7.90390212,7.5625 8.09375,7.5625 L8.09375,7.5625 Z M14.28125,7.5625 C14.4710979,7.5625 14.625,7.71640212 14.625,7.90625 L14.625,7.90625 L14.625,9.28125 C14.625,9.47109788 14.4710979,9.625 14.28125,9.625 L14.28125,9.625 L12.90625,9.625 C12.7164021,9.625 12.5625,9.47109788 12.5625,9.28125 L12.5625,9.28125 L12.5625,7.90625 C12.5625,7.71640212 12.7164021,7.5625 12.90625,7.5625 L12.90625,7.5625 Z M11.1875,7.5625 C11.3773479,7.5625 11.53125,7.71640212 11.53125,7.90625 L11.53125,7.90625 L11.53125,9.28125 C11.53125,9.47109788 11.3773479,9.625 11.1875,9.625 C10.9976521,9.625 10.84375,9.47109788 10.84375,9.28125 L10.84375,9.28125 L10.84375,7.90625 C10.84375,7.71640212 10.9976521,7.5625 11.1875,7.5625 Z M9.07515625,6.1875 C9.26500413,6.1875 9.41890625,6.34140212 9.41890625,6.53125 C9.41890625,6.72109788 9.26500413,6.875 9.07515625,6.875 L9.07515625,6.875 L7.0625,6.875 L7.0625,8.88765625 C7.0625,9.07750413 6.90859788,9.23140625 6.71875,9.23140625 C6.52890212,9.23140625 6.375,9.07750413 6.375,8.88765625 L6.375,8.88765625 L6.375,6.53125 C6.375,6.34140212 6.52890212,6.1875 6.71875,6.1875 L6.71875,6.1875 Z M15.65625,6.1875 C15.8460979,6.1875 16,6.34140212 16,6.53125 L16,6.53125 L16,8.88765625 C16,9.07750413 15.8460979,9.23140625 15.65625,9.23140625 C15.4664021,9.23140625 15.3125,9.07750413 15.3125,8.88765625 L15.3125,8.88765625 L15.3125,6.875 L13.2998438,6.875 C13.1099959,6.875 12.9560938,6.72109788 12.9560938,6.53125 C12.9560938,6.34140212 13.1099959,6.1875 13.2998438,6.1875 L13.2998438,6.1875 Z M9.125,8.25 L8.4375,8.25 L8.4375,8.9375 L9.125,8.9375 L9.125,8.25 Z M13.9375,8.25 L13.25,8.25 L13.25,8.9375 L13.9375,8.9375 L13.9375,8.25 Z M13.9375,0.6875 L8.4375,0.6875 L8.4375,1.203125 C8.43460701,1.29514958 8.46989359,1.38427471 8.53499694,1.44937806 C8.60010029,1.51448141 8.68922542,1.54976799 8.78125,1.546875 L8.78125,1.546875 L13.59375,1.546875 C13.6857746,1.54976799 13.7748997,1.51448141 13.8400031,1.44937806 C13.9051064,1.38427471 13.940393,1.29514958 13.9375,1.203125 L13.9375,1.203125 L13.9375,0.6875 Z" transform="translate(-5)"/>
</svg>
