<svg xmlns="http://www.w3.org/2000/svg" width="22" height="22" viewBox="0 0 22 22">
  <path fill="#FFF" d="M19.3028065,2 C20.7651403,2 22,3.20236337 22,4.6971935 L22,18.3131462 C22,19.8079764 20.7651403,21.0103397 19.3028065,21.0103397 L16.9305761,21.0103397 L16.9305761,20.8404727 C17.1905465,20.6779911 17.3855244,20.3855244 17.3855244,20.028065 C17.3855244,19.4756278 16.9630724,19.0531758 16.4431315,19.0531758 C15.8906942,19.0531758 15.4682422,19.4756278 15.4682422,20.028065 C15.4682422,20.3855244 15.6632201,20.6779911 15.9556869,20.872969 L15.9556869,21.0103397 L6.23929099,21.0103397 L6.23929099,20.8404727 C6.53175775,20.6779911 6.7267356,20.3855244 6.7267356,20.028065 C6.7267356,19.4756278 6.2717873,19.0531758 5.75184638,19.0531758 C5.19940916,19.0531758 4.77695716,19.4756278 4.77695716,20.028065 C4.77695716,20.3855244 4.97193501,20.6779911 5.26440177,20.872969 L5.26440177,21.0103397 L2.6971935,21.0103397 C1.20236337,21.0103397 0,19.8079764 0,18.3131462 L0,4.6971935 C0,3.20236337 1.20236337,2 2.6971935,2 L19.3028065,2 Z M19.3028065,3 L2.6971935,3 C1.80425577,3 1.07995714,3.67730191 1.00618869,4.55001465 L1,4.6971935 L1,18.3131462 C1,19.206084 1.67730191,19.9303826 2.55001465,20.004151 L2.6971935,20.0103397 L3.777,20.01 L3.78229107,19.8789346 C3.85301186,18.8952205 4.61900187,18.1292305 5.60271602,18.0585097 L5.75184638,18.0531758 C6.78130609,18.0531758 7.64486781,18.851381 7.72124644,19.8796637 L7.725,20.01 L14.469,20.01 L14.4735762,19.8789346 C14.5442969,18.8952205 15.310287,18.1292305 16.2940011,18.0585097 L16.4431315,18.0531758 C17.476401,18.0531758 18.30689,18.8553533 18.3802541,19.8802053 L18.384,20.01 L19.3028065,20.0103397 C20.1773569,20.0103397 20.9181074,19.3213598 20.9936585,18.4584812 L21,18.3131462 L21,4.6971935 C21,3.76765977 20.2259431,3 19.3028065,3 Z M11.0487445,12.6189069 C13.225997,12.6189069 14.9807976,13.6912851 14.9807976,14.9911374 C14.9807976,15.2511078 14.9483013,15.478582 14.8183161,15.6735598 L7.27917282,15.6735598 C7.1816839,15.478582 7.14918759,15.2511078 7.14918759,14.9911374 C7.14918759,13.7361076 8.78505402,12.6931345 10.8283201,12.6226977 L11.0487445,12.6189069 Z M11.0487445,13.6189069 C9.73384254,13.6189069 8.68361166,14.0918211 8.30308586,14.5953325 L8.249,14.673 L13.879,14.673 L13.8261105,14.594783 C13.4635227,14.1174598 12.4950488,13.6686829 11.2574458,13.6227655 L11.0487445,13.6189069 Z M11.0487445,6.89955687 C12.3810931,6.89955687 13.4534712,7.97193501 13.4534712,9.2717873 C13.4534712,10.5486214 12.4685961,11.5866978 11.2138753,11.6709875 L11.0487445,11.676514 C9.74889217,11.676514 8.67651403,10.6041359 8.67651403,9.2717873 C8.67651403,8.02609552 9.66138909,6.98931663 10.8875088,6.90508105 L11.0487445,6.89955687 Z M11.0487445,7.89955687 C10.3011769,7.89955687 9.67651403,8.52421976 9.67651403,9.2717873 C9.67651403,10.0488837 10.2982786,10.676514 11.0487445,10.676514 C11.8288083,10.676514 12.4534712,10.0518511 12.4534712,9.2717873 C12.4534712,8.52132146 11.8258409,7.89955687 11.0487445,7.89955687 Z"/>
</svg>
