<svg xmlns="http://www.w3.org/2000/svg" width="22" height="22" viewBox="0 0 22 22">
  <path fill="#FFF" fill-rule="evenodd" d="M11,-5.68434189e-14 C17.07013,-5.68434189e-14 22,4.92985996 22,11 C22,17.070126 17.07013,22.000011 11,22.000011 C8.88786802,22.000011 6.90933899,21.4035818 5.23620963,20.3709244 L5.23620963,20.3709244 L1.21805614,21.7576593 C1.04075563,21.8188168 0.844140338,21.7756095 0.708816594,21.6457511 C0.57349285,21.5158928 0.522221244,21.3212247 0.576021585,21.1415549 L0.576021585,21.1415549 L1.80618531,17.0363758 C0.653664635,15.2676383 -2.48689958e-14,13.2058736 -2.48689958e-14,11 C-2.48689958e-14,4.92970996 4.93225247,-5.68434189e-14 11,-5.68434189e-14 Z M11.0000005,0.99985709 C5.47266631,0.99985709 0.99985209,5.47018879 0.99985209,11.000008 C0.99985209,13.0854228 1.6358991,15.0159865 2.76556711,16.6734732 C2.85043469,16.7980117 2.87460251,16.9541859 2.83134758,17.0985512 L2.83134758,17.0985512 L1.81384036,20.4943003 L5.13683392,19.3474922 C5.28236684,19.2972742 5.44291971,19.316899 5.57207201,19.4006926 C7.13096807,20.4121747 8.99537629,21.0001539 11.0000005,21.0001539 C16.5299512,21.0001539 21.0001504,16.5299472 21.0001504,11.000008 C21.0001504,5.47003879 16.5299512,0.99985709 11.0000005,0.99985709 Z M7.08528524,4.25183015 C7.10090176,4.25234733 7.11654406,4.25234733 7.13216057,4.25308016 C7.30242782,4.25801282 7.45847061,4.34928785 7.54622601,4.49528188 L7.54622601,4.49528188 L9.7728043,8.1515578 L9.7728043,8.1515578 L9.78061685,8.15930786 L9.78842941,8.17480797 C9.80029096,8.19488717 9.8107332,8.21577164 9.81967963,8.23730841 L9.81967963,8.23730841 C9.83269876,8.27268581 9.84315922,8.3014479 9.85092985,8.33098407 L9.85092985,8.33098407 C9.85405224,8.35165023 9.85665849,8.36468568 9.85874241,8.37780941 L9.85874241,8.37780941 L9.85874241,8.39330952 C9.8592509,8.40632131 9.8592509,8.419348 9.85874241,8.43235979 L9.85874241,8.43235979 C9.85925156,8.45312996 9.85925156,8.46616501 9.85874241,8.47918513 L9.85874241,8.47918513 C9.85688264,8.50267528 9.85427551,8.51831806 9.85092985,8.53381051 L9.85092985,8.53381051 C9.84884528,8.55467591 9.84623903,8.567703 9.8431173,8.58061084 C9.83827457,8.59120643 9.83306302,8.60162953 9.82749219,8.61186107 L9.82749219,8.61186107 L9.81967963,8.62736118 L9.81967963,8.62736118 C9.81502195,8.64834983 9.80980896,8.66138647 9.80405452,8.67418651 C9.79896051,8.67946723 9.79375088,8.68463518 9.78842941,8.68968662 L9.78842941,8.68968662 L9.7728043,8.71318678 L9.7728043,8.71318678 C9.76285323,8.73180907 9.75242631,8.74223599 9.74155408,8.75218706 L9.74155408,8.75218706 C9.73160301,8.77080935 9.72117609,8.78123627 9.71030385,8.79118734 C9.69801239,8.8049139 9.68497157,8.81795054 9.67124108,8.83023761 L9.67124108,8.83023761 L8.95248598,9.54119266 C9.93121292,11.1562591 11.0204031,12.3516426 12.4368857,13.0646476 L12.4368857,13.0646476 L13.2181412,12.275567 C13.2349317,12.2559574 13.2532157,12.2376777 13.2728291,12.2208917 C13.2778153,12.2129128 13.2830258,12.2050763 13.2884542,12.1973915 C13.3034796,12.1861021 13.3191296,12.1756688 13.3353296,12.1661413 C13.3598906,12.1481711 13.386041,12.1324809 13.4134551,12.1192659 C13.4890029,12.083659 13.5722667,12.0675434 13.6556443,12.0723906 L13.6556443,12.0723906 C13.6765756,12.0744542 13.6896068,12.0770396 13.7025197,12.0801407 L13.7025197,12.0801407 L13.7181448,12.0801407 C13.7793239,12.0926364 13.8376212,12.116481 13.890021,12.1504412 C13.9088889,12.1596982 13.9271545,12.1701357 13.9447089,12.1816914 L13.9447089,12.1816914 L13.9525214,12.1894414 L17.5150457,14.4238323 C17.7103226,14.5484962 17.7943851,14.790979 17.7181721,15.0097614 C17.3168693,16.1432445 16.6708172,16.9361501 15.858784,17.3613531 C15.0467517,17.7865311 14.10712,17.8382815 13.1634533,17.6426051 C11.276125,17.2512273 9.29695842,15.9074178 7.65560179,14.2285059 C6.01424515,12.549619 4.71657344,10.5337297 4.35089085,8.65816139 C4.16804706,7.72037974 4.22186244,6.7972732 4.64776796,6.00971761 C5.07367348,5.22216203 5.86232407,4.61733274 6.97590947,4.27533032 C7.01137418,4.2634301 7.04806235,4.25554738 7.08528524,4.25183015 L7.08528524,4.25183015 Z M6.90559647,5.35338796 C6.19983646,5.63503996 5.77858348,6.02764274 5.53058672,6.48622099 C5.24256467,7.01879977 5.1753792,7.69060453 5.32746028,8.47061006 C5.63162493,10.0306211 6.82475339,11.9482647 8.36654433,13.5253259 C9.90833526,15.1023871 11.8002912,16.3333708 13.3665798,16.6581731 C14.1497253,16.8205743 14.8359827,16.7648739 15.3978432,16.4706718 C15.8829091,16.21667 16.3069521,15.7808169 16.6322269,15.0487867 L16.6322269,15.0487867 L13.6947071,13.2128237 L12.8900139,14.0175294 C12.7436625,14.1623607 12.523492,14.2026686 12.3353225,14.1190801 C10.4166664,13.2734741 9.04644165,11.7154631 7.88997845,9.71279387 C7.77752104,9.51757428 7.80951095,9.27125711 7.968104,9.11123961 L7.968104,9.11123961 L8.72592187,8.36123429 Z"/>
</svg>
